<?xml version="1.0" encoding="UTF-8" standalone="no"?>
<!DOCTYPE svg PUBLIC "-//W3C//DTD SVG 1.1//EN"
"http://www.w3.org/Graphics/SVG/1.1/DTD/svg11.dtd">


<!-- Page 1 -->
<svg x="0" y="0" width="216" height="160" viewBox="0 0 216 160" version="1.1" xmlns="http://www.w3.org/2000/svg" xmlns:xlink="http://www.w3.org/1999/xlink"
style="display: block;margin-left: auto;margin-right: auto;">
<defs>

<style type="text/css"><![CDATA[

.g0_1{
}
.g1_1{
fill: none;
stroke: #000000;
stroke-width: 1.5157083;
stroke-linecap: butt;
stroke-linejoin: miter;
}

]]></style>

</defs>
<path d="M0,0
L0,160
L216,160
L216,0 Z " 
fill="#FFFFFF" stroke="none" />
<path fill-rule="evenodd" d="M49.2,112.3l.6,-10l2,-9.2L55,84.7l4.6,-7.6l5.8,-6.9l6.9,-5.9L80,59.7l8.4,-3.3l9.2,-2l9.9,-.6l9.9,.6l9.2,2l8.4,3.3l7.7,4.6l7,5.9l5.9,6.9l4.5,7.7l3.3,8.4l2,9.2l.7,9.9H49.2M68.7,73.5l-5,5.7l-3.9,6.3l-3,6.9l-2,7.4l-1,8H161.4L160.3,100l-2.1,-7.3l-3.1,-6.8l-4,-6.3L146,73.8l-6.5,-5.6l-7.1,-4.3l-7.7,-3.1l-8.3,-1.9l-8.9,-.6l-9.1,.6L90,60.7l-7.8,3.1L75.1,68l-6.4,5.5" class="g0_1" />
<path d="M18,142.5V21.2M197,142.5V21.2m-179,0H197M18,142.5H197" class="g1_1" />

</svg>
