<?xml version="1.0" encoding="UTF-8" standalone="no"?>
<!DOCTYPE svg PUBLIC "-//W3C//DTD SVG 1.1//EN"
"http://www.w3.org/Graphics/SVG/1.1/DTD/svg11.dtd">


<!-- Page 1 -->
<svg x="0" y="0" width="1286" height="909" viewBox="0 0 1286 909" version="1.1" xmlns="http://www.w3.org/2000/svg" xmlns:xlink="http://www.w3.org/1999/xlink"
style="display: block;margin-left: auto;margin-right: auto;">
<defs>

<style type="text/css"><![CDATA[

.g0_1{
}
.g1_1{
fill: none;
stroke: #000000;
stroke-width: 1.5157083;
stroke-linecap: round;
stroke-linejoin: miter;
}
.g2_1{
fill: none;
stroke: #000000;
stroke-width: 3.0315692;
stroke-linecap: round;
stroke-linejoin: miter;
}
.g3_1{
fill: none;
stroke: #000000;
stroke-width: 3.0314167;
stroke-linecap: round;
stroke-linejoin: miter;
}
.g4_1{
fill: none;
stroke: #000000;
stroke-width: 0.3465;
stroke-linecap: round;
stroke-linejoin: miter;
}
.g5_1{
fill: none;
stroke: #000000;
stroke-width: 1.0912917;
stroke-linecap: round;
stroke-linejoin: miter;
}

]]></style>

</defs>
<path d="M0,0
L0,909
L1286,909
L1286,0 Z " 
fill="#FFFFFF" stroke="none" />
<image preserveAspectRatio="none" x="22" y="158" width="1073" height="468" xlink:href="1/img/1.png" />
<path fill-rule="evenodd" d="M425,533.4V538H338.4v-4.6H425" class="g0_1" />
<path fill-rule="evenodd" d="M235.5,533.4V538H148.9v-4.6h86.6" class="g0_1" />
<path d="M281.1,566.7c.4,0,.9,0,1.4,.1M337.3,410.1c.6,.6,1.2,1.2,1.9,1.8" class="g1_1" />
<path d="M324.6,379.4c0,11.5,4.5,22.5,12.7,30.7m-56.2,94.7c-17.1,1.4,-29.8,16.4,-28.4,33.5c1.3,15.1,13.3,27.1,28.4,28.4m56.2,94.7c-8.2,8.1,-12.7,19.1,-12.7,30.6" class="g2_1" />
<path d="M901.1,349.4v.6l-.1,.3l-.1,.2l-.1,.3l-.2,.3l-.1,.2l-.3,.4l-.2,.3l-.4,.4l-.3,.3l-.4,.4l-.4,.3l-.5,.4l-.5,.3l-.5,.4l-.6,.3l-.1,.1h-.1m110.4,20.9l-.6,-.3l-.6,-.4l-.6,-.4l-.6,-.4l-.5,-.5l-.6,-.5l-.5,-.6l-.4,-.5l-.5,-.7l-.4,-.6l-.4,-.7l-.4,-.7l-.3,-.7l-.2,-.7l-.2,-.7l-.2,-.7l-.1,-.8l-.1,-.7v-.3M886.2,323.3L715.7,309.4m0,0l-6,-.3l-6.2,-.1m186.1,14.2l.6,-.1l.6,-.2l.6,-.2l.5,-.2L893,322m-6.8,1.3l.8,.1h.9l.9,-.1l.8,-.1m43.5,146.4h.2l1.5,.2l1.4,.2l1.5,.2l1.5,.1l1.5,.1l1.5,.1l1.6,.1l1.5,.1h4.6l1.6,-.1H953l1.5,-.1l1.6,-.2l1.5,-.1l1.6,-.2l1.5,-.2l1.5,-.2l1.5,-.2l1.5,-.3l1.5,-.2l1.5,-.3l1.4,-.4l1.5,-.3l1.4,-.4l1.4,-.4l1.4,-.4l1.4,-.4l1.3,-.5l1.4,-.5l1.3,-.4l1.2,-.6l1.3,-.5l1.2,-.6l1.2,-.5l1.1,-.6l1,-.5M607.3,354.4l1.1,18.7m0,0l88.4,-13.8M599.5,337.9l1,18.8m0,0l7.9,16.4m379.3,88.5l.2,-.1l.1,-.1l1.2,-.7l1.2,-.7l1,-.6l1,-.7l.9,-.7l.9,-.6l.8,-.7l.8,-.7l.7,-.6l.6,-.6l1.1,-1.2M754.6,378.9l64.6,5.3M693.3,325l-.7,.5l-.8,.6l-.4,.3l-.3,.3l-.4,.3l-.3,.3m10.8,-7.4l-.2,.2l-.3,.2l-.2,.2l-.3,.1l-.5,.4l-.6,.4l-.5,.3l-.5,.4l-.6,.3l-.5,.4m10.1,-6.2H707l-.1,.1h-.2l-.2,.1l-.2,.1l-.4,.1l-.3,.2l-.4,.1l-.4,.2l-.2,.1l-.2,.1l-.2,.1l-.2,.1l-.7,.4l-.7,.5l-.7,.5l-.7,.6m-4.2,2.9l-3.7,2.2m-4,3.3l-.4,.3l-.3,.3l-.3,.4l-.4,.3l-.6,.5l-.7,.6l-.2,.1l-.2,.1l-.1,.2l-.2,.1l-.4,.2l-.3,.2l-.4,.3l-.3,.2l-.2,.1l-.1,.1h-.1l-.1,.1h-.2m6.6,-5.1l-1.1,1m-10.9,-7.1l3.3,-.9l2.9,-1.6m0,0l1.3,-.9m0,0l5.4,-3.6l5.6,-3.4m122.3,73.4h.5l.5,.1l1,.1l.9,.1l.9,.2l.9,.1l.7,.2M696.9,310.8l.8,-.4l.7,-.3l.8,-.3l.9,-.3l.4,-.1l.4,-.1h.2l.2,-.1h.4l.9,-.1l.9,-.1m11.3,50.4L748.1,377m0,0l.5,.3l.4,.2l.8,.3l.7,.3l.8,.2l.9,.2l.8,.2l.8,.1l.4,.1h.4M990.9,210.6v-.5l-.1,-.8l-.1,-.9l-.2,-.8l-.2,-.8l-.3,-.9l-.3,-.8l-.4,-.8l-.4,-.8l-.5,-.8l-.5,-.8l-.5,-.8l-.6,-.7l-.7,-.8l-.6,-.7l-.8,-.7l-.7,-.8l-.9,-.7l-.8,-.6l-.9,-.7l-.9,-.6l-1,-.7l-1,-.6l-1.1,-.6l-1.1,-.5l-1.1,-.6l-1.1,-.5l-1.2,-.5l-1.2,-.5l-1.2,-.5l-1.3,-.4l-1.3,-.4l-1.3,-.4l-1.3,-.4l-1.4,-.3l-1.4,-.4l-1.4,-.3l-1.4,-.2l-1.4,-.3l-1.5,-.2l-1.4,-.2l-1.5,-.2l-1.5,-.2l-1.5,-.1l-1.5,-.1l-1.5,-.1l-1.6,-.1h-6.1l-1.6,.1l-1.5,.1l-1.6,.1l-1.5,.1l-1.5,.1l-1.6,.2l-1.5,.2l-1.5,.2l-1.5,.3l-1.5,.2l-1.5,.3l-1.5,.3l-1.4,.4l-1.4,.3l-1.5,.4l-1.4,.4l-1.4,.4l-1.3,.5l-1.4,.4l-1.3,.5l-1.3,.5l-1.2,.6l-1.3,.5l-1.2,.6l-.6,.3l-.6,.2m0,0l-.6,.4l-.6,.3l-1.1,.6l-1.1,.7l-1.1,.6l-1,.7l-1,.7l-1,.7l-.9,.7l-.9,.8l-.8,.8l-.8,.7l-.8,.8l-.7,.9l-.7,.8l-.6,.8l-.6,.9l-.5,.8l-.5,.9l-.5,.9l-.3,.8l-.4,.9l-.3,.9l-.2,.9l-.2,.9l-.1,.8l-.1,.9v2.1M143.6,598.5L49.5,401.6M692.4,512.4L143.6,598.5M598.3,315.6l94.1,196.8M49.5,401.6l548.8,-86" class="g3_1" />
<path d="M891.2,376.5l-.4,2l-1.4,1.8l-2,1m14.5,27.4h.1l.1,-.1h.1l.1,-.1h.1l.2,-.2l.2,-.1l.1,-.1l.2,-.1l.1,-.1h.1l.2,-.2l.2,-.2l.2,-.2l.2,-.2l.1,-.1l.1,-.1l.1,-.2l.1,-.1l.1,-.2l.2,-.2l.1,-.3l.2,-.3m85.8,-35.1l3.1,-2.9m-23.8,25.6l20.7,-22.7m-1.7,46l9.9,4.8m4.2,-37.2l-18,19.5m53.3,-2.3l-35.3,-17.2M900.7,353.3l2.2,-1.7l2.1,-2.3l1.8,-2.9l1.3,-3.1l.7,-3.2L909,337m104.6,111.2l-11.1,-5.4m2.5,-61.1l-1.7,2.4m3.3,-8.3l.3,.2l.3,.2l.2,.2l.1,.3l.1,.4v.5l-.1,.2v.1l-.2,.4l-.2,.6l-.4,.6l-.4,.6l-.3,.4l-.3,.4l-.3,.3l-.4,.5M894.6,364.3l-2,1l-1.4,1.7l-.4,2m112.5,15.1l-3.1,-1l-2.9,-1.7l-2.5,-2.2l-2,-2.7l-1.3,-3l-.6,-3M890.8,369l-1.1,-1.8l-.5,-1.9M898.1,355l-1,-.3l-.9,.2m-6.6,17.9l.5,1.9l1.1,1.8m9.5,-23.2l-.2,-.2l-.1,-.1l-.1,-.2v-.7l.1,-.1v-.2l.1,-.1l.1,-.2l.1,-.2l.1,-.3l.1,-.2l.1,-.3l.1,-.2l.1,-.3l.1,-.2v-.3l.1,-.3v-.6l-.1,-.2v-.2l-.2,-.6l-.2,-.5l-.1,-.1l-.1,-.2l-.1,-.1l-.1,-.1l-.2,-.3l-.2,-.2l-.1,-.2l-.2,-.1l-.1,-.1l-.1,-.1l-.2,-.2l-.2,-.1l-.1,-.1H899v-.1h-.1m2.2,4.3l-.6,-2.2l-1.6,-2.1M711.4,324.6l-.1,2.2L711,329l-.5,1.5m.9,-5.9l167.4,13.7m0,0v2.2l-.3,2.1l-.5,1.6m127,37.5l-3.4,-1.4l-3.1,-2.4L996,374.8l-1.5,-3.5l-.5,-3.7M878.7,336.4L711.3,322.8m0,0v-2.2l.3,-2.1l.5,-1.6m0,0l167.5,13.6m-.9,5.9l.1,-2.1l.3,-2.2l.5,-1.6m15.3,15.6l-.5,2l-1.4,1.6l-2.1,.7m-9.1,-19.6l1.7,-3.8l2.7,-3.7m-6.6,7.2l1.1,.1l1.1,.2M707.1,316.6l2.5,.1l2.5,.2M703.5,309l3.6,7.6m4.2,6.2l.1,1.8m167.4,13.7l-.1,-1.9m110,122.8l1.1,-.5l1,-.5l1,-.5l1,-.6l.9,-.6l.9,-.6l.8,-.6l.8,-.7l1.4,-1.3M894.8,344.2v-.1l-.1,-.1v-.2l-.1,-.3l-.1,-.2l-.1,-.2l-.1,-.3l-.1,-.2l-.2,-.2l-.2,-.5l-.3,-.4l-.1,-.3l-.2,-.2l-.2,-.2l-.1,-.2l-.7,-.9l-.8,-.9l-.2,-.2l-.2,-.2l-.3,-.2l-.2,-.2l-.4,-.4l-.5,-.4l-.5,-.4l-.5,-.4l-.5,-.4l-.5,-.4l-.6,-.4l-.5,-.4l-.5,-.4l-.6,-.4l-.5,-.4l-.6,-.3l-.2,-.3l-.3,-.2l-.3,-.2l-.2,-.2l-.3,-.2l-.2,-.2l-.1,-.1l-.1,-.1l-.1,-.1l-.1,-.1l-.2,-.2l-.2,-.2l-.1,-.2l-.1,-.2m11.3,-6.3l-1.8,2.7l-2.6,2l-3.3,1.3l-3.6,.3m13,13.4L893.4,342l-2.5,-2.1l-3.4,-1.6l-4.1,-1.2l-4.7,-.7m.1,1.9l4.7,.7l4.1,1.2l3.4,1.6l2.5,2l1.4,2.3m93.8,113.1l-.2,1.5l-.8,.9M818.5,382v-.1m-64.6,-5.2l64.6,5.3m-69.4,-6.7l2.3,1l2.5,.4M719.3,359.6l29.8,15.7m69.4,6.7h.2m-64.1,-3.1l-.5,-.6l-.2,-1.6m65.3,7.5l-.5,-.6l-.2,-1.6M691.4,331.3l-.6,-1.7l-.4,-2.3m2.9,-2.3l9.1,-.6l9,.2m-.1,-1.8l-7.1,-.3l-7.2,.3m-12.4,-4.1l4.7,9.6m11.9,-8.4l-4.3,-9.1M748.1,377l.3,-.4l.7,-1.3" class="g1_1" />
<path d="M228.6,327.6l-14.7,14.8m14.7,-14.8h15.6M228.6,743.8h15.6M213.9,729l14.7,14.8M213.9,729V342.4m30.3,401.4V327.6M360.1,432.9L337.3,410.1m22.8,86.6V432.9m-4.3,68.2l4.3,-4.4m-35.5,4.4h31.2m-74.7,3.7l43.5,-3.7m0,69.3l-43.5,-3.7m74.7,3.7H324.6m35.5,4.3l-4.3,-4.3m4.3,68.1V574.7m-22.8,86.7l22.8,-22.9M324.6,692v47.5m-4.4,4.3l4.4,-4.3m0,-407.5l-4.4,-4.4m4.4,4.4v47.4m-4.4,364.4h-76m0,-416.2h76M252.6,284.9H213.9M252.6,259v25.9M244.2,259h8.4m-8.4,-26v26M213.9,233h30.3m-30.3,51.9V233m67.2,26H252.6m28.5,25.9H252.6m72,-25.9v25.9M281.1,259h43.5m-43.5,25.9h43.5m31.2,0V259m-31.2,0h31.2m0,25.9H324.6M360.1,259v25.9M355.8,259h4.3m0,25.9h-4.3M894.9,631L885,670m9.9,-39l13.3,7m-5,19.5l5,-19.5M968,691.5l-64.8,-34M963,711l5,-19.5M963,711L885,670M1145.1,536.7l-1.3,-4.5l-.2,-4.4l.9,-4.2l1.9,-3.9l2.8,-3.6m4.2,41.9l-8.3,-21.3m-22.8,52.4L1153.4,558m-36.9,31.3l5.8,-.2m-32.4,-13.8l26.6,14m-65.4,-31.7l38.8,17.7m-38.8,-17.7l-5,-1.9l-5.3,-1.4l-5.3,-.8l-5.2,-.1l-5,.4l-4.6,1.1l-4.1,1.6l-3.4,2.2l-2.6,2.7l-1.8,3l-.9,3.3v3.5l.9,3.6l1.9,3.5l2.7,3.5l3.4,3.1l4.1,2.9m35.3,21.2l-35.3,-21.2m61.8,35.2l-26.5,-14m28.1,18l-1.6,-4m-29.5,35.1L1084.3,627m-61.7,32l30.6,-.9m-56.3,10.1l3.8,-3l4.5,-2.5l5.3,-1.9l5.9,-1.3l6.2,-.5m-25.7,9.2l-23.1,23.1m-5.8,.2l5.8,-.2M903.2,657.5L1106,455m0,0l64.8,34m1.5,4l-1.5,-4m1.5,4l-23.1,23.1M973.8,691.3l-5,19.5m0,0L963,711m28.9,-23.3l-23.1,23.1M1097.7,428.5l-19.8,.6m19.8,-.6l13.2,7M908.2,638L1110.9,435.5M889.5,617.2l5.4,13.8m-5.4,-13.8L1077.9,429.1m33,6.4L1106,455M879.6,656.2l9.9,-39M885,670l-5.4,-13.8m138.1,22.3l-6.3,.5l-5.9,1.3l-5.2,1.8l-4.6,2.6l-3.8,3m61.3,-29.6l-5,19.5m0,0l-30.5,.9m61.6,-32l5,-19.5m-5,19.5l-31.1,31.1m-2.1,-100.5l-5.4,-2l-5.6,-1.4l-5.7,-.8h-5.5l-5.2,.7l-4.8,1.4l-4,2m112.4,12.1l-5,19.5m-5.8,.2l5,-19.5m.8,19.3l-5.8,.2m-21.6,-33.5l-4.9,19.5m26.5,14l-26.5,-14M1153.4,558l-5,19.5m0,0l-31.1,31.1m-71.2,-31.5l38.9,17.7m82.4,-82.3l4.9,-19.5m-4.9,19.5l-22.8,22.8M704,537.7l1,18.8m0,0l-10.3,-2.8m0,0l-1.1,-18.8m0,0l10.4,2.8m33.6,-9l1.5,-1.1l.6,-1.1l-.3,-1.2l-1.1,-1l-1.7,-.7l-2.3,-.3l-2.4,.1l-2.2,.5l-1.7,.9l-1.1,1.1l-.1,1.2l.6,1.1l1.5,.9l2,.5l2.4,.1l2.3,-.3l2,-.7M645.5,335.8l1.4,-1l.6,-1.2l-.2,-1.1l-1.1,-1l-1.8,-.8l-2.3,-.3l-2.3,.1l-2.3,.6l-1.7,.8l-1,1.2l-.2,1.1l.7,1.2l1.4,.8l2.1,.6l2.3,.1l2.4,-.4l2,-.7m244.1,65.4l1.4,-1l.6,-1.2l-.2,-1.2l-1.1,-1l-1.8,-.7l-2.2,-.3l-2.4,.1l-2.2,.5l-1.8,.9l-1,1.1l-.2,1.2l.7,1.1l1.4,.9l2.1,.5l2.3,.1l2.4,-.3l2,-.7M704,537.7l72.5,-11.4m-90.7,-7.8l7.8,16.4m80.7,-30.3l-88.5,13.9M866.8,427l-1.1,6.5l-2,6.5l-3,6.4l-3.9,6.3L852,459l-5.7,6.1l-6.5,5.9l-7.3,5.6l-8,5.5l-8.8,5.1l-9.5,4.9l-10.1,4.5l-10.6,4.2l-11.2,3.8M844.5,380.3L866.8,427m-171,-86.5h13l12.9,.5l12.8,.9l12.4,1.4l12.2,1.9l11.7,2.3l11.4,2.8l10.8,3.2l10.3,3.6l9.6,3.9l9,4.4l8.3,4.6l7.6,5l6.7,5.3M607.3,354.4l88.5,-13.9m-96.3,-2.6l7.8,16.5M606,332.5l-6.5,5.4m78.9,-16.7L606,332.5M778.5,525.9l-1,.2l-1,.2m2,-.4l1,19m-2,.2l1,-.1l1,-.1M705,556.5l72.5,-11.4M685.8,518.5l1,18.8m0,0l7.9,16.4M889.3,517.4l-6.5,6.6l-7.3,6.4l-8.1,6.1l-8.8,6l-9.6,5.6l-10.2,5.4m-5.6,1.2h1.4l.7,-.1l.7,-.1l.3,-.1l.4,-.1h.2l.2,-.1h.1l.2,-.1l.7,-.3l.7,-.3m-55.1,-8.3l13.1,3.1l12.7,2.7l12.2,2.1l11.5,1.6m-53.7,-9.8h.6l.5,-.1h.5l.6,.1h.5l.5,.1l.5,.1l.5,.1m-1.2,-21.8l-.5,.4l-.4,.3l-.5,.4l-.5,.3l-.5,.3l-.6,.3l-.5,.2l-.5,.3m15.3,-12.4l-11.3,9.9m17.1,-13.3l-.8,.3l-.7,.3l-.8,.4l-.7,.4l-.4,.2l-.3,.2l-.2,.2l-.2,.1l-.2,.1l-.1,.1l-.7,.6l-.7,.5m92.3,-54.3l-6.6,6.7l-7.5,6.5l-8.2,6.2l-9.1,6.1l-9.7,5.7l-10.5,5.4l-11,5.1l-11.7,4.8l-12.2,4.4m-21.8,3.4l.5,-.3l.6,-.4l.5,-.4l.5,-.3l.3,-.2l.2,-.2l.3,-.2l.2,-.2l.5,-.5l.5,-.4m0,0l3.4,-2.9m0,0l.4,-.5l.5,-.4l.5,-.4l.5,-.4l.6,-.4l.5,-.4l.1,-.1l.2,-.1h.1l.1,-.1l.3,-.2l.3,-.2M771.1,515h1.3l.4,-.1h.4l.5,-.1h.4l.2,-.1h.2l.9,-.2l.8,-.3l.8,-.3l.8,-.4m11.6,-9.2l.7,-.4l.8,-.3l.8,-.3l.8,-.3h.2l.3,-.1h.2l.2,-.1l.4,-.1h.4l.5,-.1h.8l.1,-.1h.4M938.4,408.2L921,399.7m9.6,10.9l.3,-.3l.3,-.3l.3,-.3l.4,-.2l.2,-.2l.2,-.1l.1,-.1h.2l.1,-.1h.1l.4,-.3l.5,-.2l.3,-.1l.3,-.1h.1l.1,-.1h.2l.1,-.1h.3l.3,-.1h.3l.2,-.1h1.7l.1,.1h.3l.1,.1h.1l.2,.1m-7.8,2.4l-44.5,48.6m-16.7,-1.8l-.6,.7l-.7,.7l-1.4,1.4l-1.3,1.4l-1.4,1.3l-1.5,1.4l-1.5,1.3l-1.5,1.4l-1.6,1.3l-1.6,1.3l-1.7,1.3l-1.7,1.3l-1.7,1.3l-1.8,1.3l-1.8,1.3l-1.8,1.2l-1.9,1.3l-1.9,1.2l-2,1.2l-1.9,1.2l-2.1,1.2l-2,1.2l-2.1,1.2l-2.1,1.1l-2.2,1.2l-2.2,1.1l-2.2,1.1l-2.3,1.1l-2.3,1.1l-2.3,1l-2.3,1.1l-2.4,1l-2.4,1.1l-2.5,1l-2.4,.9l-2.5,1l-2.5,1l-2.6,.9l-2.5,.9l-2.6,.9m97.7,14.1l48.8,-53.3M916.8,405.6l-47.4,51.8m70.4,2.9l6.3,3.1m32.3,-66.2l-15.9,-7.8M895.7,366l.3,.3l.4,.4l.3,.3l.4,.3M895.7,366l57.9,28.4M964,462.2l-4.2,1.8l-4.1,.9h-4l-3.7,-.7l-3.3,-1.6l-3,-2.4l-2.4,-3.1l-1.9,-3.7l-1.3,-4.3l-.7,-4.7v-5.1l.7,-5.3l1.2,-5.4l1.9,-5.4l2.5,-5.2l2.9,-4.8l3.3,-4.5l3.8,-4l3.9,-3.3l4.1,-2.6l4.2,-1.9l4.2,-1l4,-.3l3.7,.6l3.5,1.5l3,2.2l2.5,3l2,3.6l1.4,4.2l.8,4.6m-49.2,45v0M917.2,399.4v0h.3l.1,-.1h.1l.3,-.1h1.3l.4,.1l.5,.1l.4,.1l.4,.2m82.5,42.5l2.9,-.9l2.7,.2l2.2,1.3l1.5,2.3l.8,3.1M999.1,421.3l-2.9,1l-2.7,-.3l-2.2,-1.3l-1.5,-2.3l-.8,-3.1m10.1,6l39.5,-20m0,0l4.2,-1.7l4.1,-.9l3.9,-.1l3.8,.8l3.3,1.6l3,2.4l2.4,3l1.9,3.8l1.3,4.3l.6,4.7l.1,5.1l-.7,5.3l-1.3,5.4l-1.8,5.4l-2.5,5.1l-2.9,4.9l-3.4,4.5l-3.7,3.9l-3.9,3.4l-4.1,2.6l-4.2,1.9l-4.2,1l-4,.2l-3.7,-.6l-3.5,-1.4l-3,-2.2l-2.5,-3l-2,-3.6l-1.4,-4.2l-.8,-4.7M963.2,448l-3.1,1.1l-3,.4l-2.8,-.5l-2.4,-1.3l-2,-2.1l-1.5,-2.7l-.8,-3.3l-.2,-3.7l.4,-3.9l1.1,-4l1.7,-3.9l2.2,-3.7l2.5,-3.2l2.9,-2.6l3.1,-1.9l3.1,-1.2l3,-.4l2.8,.5l2.4,1.3l2,2.1l1.5,2.7l.8,3.3l.2,3.7l-.4,3.9l-1.1,4l-1.7,3.9l-2.1,3.7l-2.6,3.2l-2.9,2.6l-3.1,2m78.1,2.9l-3.1,1.2l-3,.3l-2.8,-.4l-2.5,-1.3l-1.9,-2.1l-1.5,-2.7l-.8,-3.3l-.2,-3.7l.4,-3.9l1.1,-4.1l1.6,-3.9l2.2,-3.6l2.6,-3.2l2.9,-2.6l3.1,-2l3.1,-1.2l3,-.3l2.8,.5l2.4,1.3l2,2l1.4,2.8l.9,3.3l.2,3.6l-.5,4l-1,4l-1.7,3.9l-2.2,3.6l-2.6,3.2l-2.8,2.7l-3.1,1.9m-37.8,-8.7l-39.5,20m-22.5,-1.1l-.8,.7l-.7,.5l-.7,.6l-.6,.6l-.6,.6M844.5,380.3l1,18.8m0,0l18.8,39.2m95.8,4.5l2.7,-1.9l2.6,-2.5l2.2,-3.1l1.8,-3.4l1.1,-3.6l.5,-3.6l-.2,-3.4l-.8,-2.9l-1.5,-2.3l-2,-1.6l-2.4,-.7l-2.7,.1l-2.8,1l-2.8,1.9m-8.2,16.7l.3,3.3l.9,2.8l1.5,2.2l2,1.4l2.3,.7l2.7,-.1l2.8,-1m-6.5,-48.4l-.2,-.1l-.2,-.1m-57,-27.9l-.2,-.2l-.3,-.1m.5,.3l57,27.9m0,0l-.2,-2.3l-.2,-2.3v-2.4l.1,-1.1l.1,-1.2l.1,-1.1l.3,-1.2l.1,-.6l.2,-.5l.1,-.3l.1,-.3l.1,-.3l.1,-.3l.5,-1.2l.7,-1.1l.3,-.6l.4,-.5l.5,-.6l.5,-.5m0,0l18.7,-20.5M917.2,405v.1l-.1,.1v.1l-.1,.1l-.1,.1l-.1,.1M887.2,216.4l6.2,113.3m106,35.2L991,210.7M962.5,389.4h-.1l-.2,-.1l-.2,-.1l-.1,-.1l-.1,-.1l-.1,-.1M912.3,196.7l4.6,-2l5.2,-1.7l5.5,-1.3l5.9,-.9l5.9,-.4h5.9l5.8,.5l5.5,.9l5.1,1.4l4.6,1.7l3.9,2.1l3.1,2.3l2.4,2.7l1.5,2.8l.6,2.9l-.3,3l-1.2,2.9l-2.1,2.9l-3,2.7l-3.6,2.4l-4.4,2.2l-4.9,1.9l-5.4,1.5l-5.7,1.1l-5.9,.7l-6,.2l-5.8,-.3l-5.7,-.7l-5.3,-1.1l-4.8,-1.6l-4.3,-1.9l-3.5,-2.2l-2.8,-2.5l-1.9,-2.7l-1.1,-2.9l-.1,-2.9l.8,-3l1.6,-2.9l2.5,-2.8l3.3,-2.6l4.1,-2.4m3.1,5.3l-3.9,2.3l-3.2,2.6l-2.2,2.8l-1.3,2.9l-.3,2.9l.7,2.9l1.7,2.8l2.6,2.5m60.1,-3.3l2.3,-2.7l1.3,-2.8l.5,-2.9l-.5,-2.8l-1.4,-2.7L969.4,204l-3.1,-2.2l-3.9,-1.9l-4.6,-1.6l-5,-1.1l-5.5,-.7l-5.6,-.2l-5.7,.2l-5.7,.8l-5.4,1.1l-5,1.6l-4.5,2m76.3,123.9h-.1v.2l-.1,.2l-.1,.1l-.1,.3l-.1,.2l-.2,.5l-.3,.6l-.4,1l-.5,1l-.9,2.1l-1,2.1l-.9,2l-1,2l-1,2l-.9,2l-.5,.9l-.5,1l-.3,.4l-.2,.5l-.3,.5l-.2,.4l-1.1,1.8l-1,1.7l-.5,.9l-.6,.8l-.5,.8l-.5,.7l-.6,.7l-.5,.7l-.6,.7l-.5,.6m13.8,94.1l34.6,16.9m32.4,-66.1l-49.9,-24.4M695.8,340.5l1,18.8m0,0h13.1l12.9,.5l12.7,.9l12.4,1.4l12.2,1.9l11.8,2.3l11.3,2.8l10.8,3.2l10.3,3.5l9.7,4l9,4.3l8.3,4.7l7.5,5l6.7,5.3m50.7,-44.2l-.4,.3l-.4,.2l-.7,.5l-.7,.5l-.7,.5l-.6,.6l-.6,.5l-.5,.6l-.4,.6l-.4,.5l-.4,.6l-.3,.6l-.2,.6l-.2,.5l-.2,.7l-.2,.7l-.1,.6v1.3m0,0l.4,7.5m148.5,72.9l2.8,-1.8l2.6,-2.5l2.2,-3.1l1.7,-3.4l1.2,-3.7l.5,-3.6l-.2,-3.3l-.9,-2.9l-1.4,-2.3l-2,-1.6l-2.5,-.7l-2.6,.1l-2.9,1l-2.7,1.8m-8.2,16.8l.2,3.2l.9,2.8l1.5,2.2l2,1.5l2.4,.7l2.7,-.2l2.7,-1" class="g3_1" />
<path d="M309.4,776.8v8.1m0,0l15.2,-4.1m-15.2,-3.9h.4m-.4,0h.4m-.4,.2h1.2m-1.2,.2h2m-2,.2h2.9m-2.9,.3h3.7m-3.7,.2h4.5m-4.5,.2h5.3m-5.3,.2h6.1m-6.1,.2h7m-7,.3h7.8m-7.8,.2H318m-8.6,.2h9.4m-9.4,.2h10.2m-10.2,.2h11.1m-11.1,.3h11.9m-11.9,.2h12.7m-12.7,.2h13.5m-13.5,.2h14.4m-14.4,.2h15.2m-15.2,4h.4m-.4,0h.4m-.4,-.2h1.2m-1.2,-.2h2m-2,-.3h2.9m-2.9,-.2h3.7m-3.7,-.2h4.5m-4.5,-.2h5.3m-5.3,-.2h6.1m-6.1,-.3h7m-7,-.2h7.8m-7.8,-.2H318m-8.6,-.2h9.4m-9.4,-.2h10.2m-10.2,-.3h11.1m-11.1,-.2h11.9m-11.9,-.2h12.7m-12.7,-.2h13.5m-13.5,-.2h14.4m-14.4,-.3h15.2m-110.7,0l15.1,4.1m0,0v-8.1m0,0l-15.1,4m15.1,4h-.4m.4,0h-.4m.4,-.2h-1.2m1.2,-.2h-2m2,-.3h-2.8m2.8,-.2h-3.6m3.6,-.2h-4.5m4.5,-.2h-5.3m5.3,-.2h-6.1M229,783h-6.9m6.9,-.2h-7.8m7.8,-.2h-8.6m8.6,-.2h-9.4m9.4,-.2H218.8m10.2,-.3H218m11,-.2H217.1m11.9,-.2H216.3m12.7,-.2H215.5m13.5,-.2H214.7m14.3,-.3H213.9M229,776.9h-.4m.4,0h-.4m.4,.2h-1.2m1.2,.2h-2m2,.2h-2.8m2.8,.3h-3.6m3.6,.2h-4.5m4.5,.2h-5.3m5.3,.2h-6.1m6.1,.2h-6.9m6.9,.3h-7.8m7.8,.2h-8.6m8.6,.2h-9.4m9.4,.2H218.8m10.2,.2H218m11,.3H217.1m11.9,.2H216.3m12.7,.2H215.5m13.5,.2H214.7m14.3,.2H213.9M333.4,405.6l65.8,-49.9m-65.8,49.9l14.5,-5.9m0,0L343,393.2m0,0l-9.6,12.4m14.5,-6l-.3,.2m.3,-.2l-.3,.2m.1,-.4l-.9,.8m.8,-.9l-1.6,1.2m1.5,-1.4l-2.3,1.7m2.1,-1.9l-2.9,2.2m2.8,-2.4l-3.6,2.8m3.5,-2.9l-4.3,3.2m4.1,-3.4l-4.9,3.7m4.8,-3.9l-5.5,4.2m5.4,-4.4l-6.2,4.7m6,-4.8l-6.8,5.2m6.7,-5.4l-7.5,5.7m7.4,-5.9l-8.2,6.2m8,-6.4l-8.8,6.7m8.7,-6.8l-9.5,7.1m9.4,-7.3l-10.1,7.7m9.9,-7.9L335,405m10.6,-8.4l-11.4,8.7m11.3,-8.8l-12.1,9.1m9.7,-12.3l-.3,.2m.3,-.2l-.3,.2m.4,0l-1,.7m1.1,-.5l-1.6,1.2m1.8,-1.1l-2.3,1.8m2.4,-1.6l-2.9,2.2m3,-2l-3.5,2.7m3.7,-2.5l-4.3,3.2m4.4,-3.1l-4.9,3.7m5,-3.5l-5.5,4.2m5.7,-4l-6.2,4.7m6.3,-4.5l-6.8,5.2m6.9,-5.1l-7.5,5.7m7.7,-5.5l-8.2,6.2m8.3,-6l-8.8,6.7m8.9,-6.5l-9.4,7.1m9.6,-7L335,403.6m10.2,-7.5l-10.8,8.2m10.9,-8L333.9,405m11.6,-8.5l-12.1,9.1m26.7,27.3H557.3M360.1,638.5H557.3M548.6,432.9V638.5m0,-205.6l-4,15.1m0,0h8.1m0,0l-4.1,-15.1M544.7,448v-.3m0,.3v-.3m.2,.3v-1.2m.2,1.2v-2m.2,2v-2.8m.2,2.8v-3.6m.3,3.6v-4.4m.2,4.4v-5.3m.2,5.3v-6.1m.2,6.1v-6.9m.2,6.9v-7.7m.3,7.7v-8.5m.2,8.5v-9.4m.2,9.4V437.8m.2,10.2V437m.2,11V436.2M548,448V435.3m.2,12.7V434.5m.2,13.5V433.7m.2,14.3V432.9m4,15.1v-.3m0,.3v-.3m-.2,.3v-1.2m-.3,1.2v-2m-.2,2v-2.8m-.2,2.8v-3.6m-.2,3.6v-4.4m-.2,4.4v-5.3M551,448v-6.1m-.2,6.1v-6.9m-.2,6.9v-7.7m-.2,7.7v-8.5m-.2,8.5v-9.4m-.3,9.4V437.8m-.2,10.2V437m-.2,11V436.2m-.2,11.8V435.3m-.2,12.7V434.5m-.3,13.5V433.7m-.2,14.3V432.9m0,205.6l4.1,-15.1m0,0h-8.1m0,0l4,15.1m4,-15.1v.4m0,-.4v.4m-.2,-.4v1.2m-.3,-1.2v2m-.2,-2v2.8m-.2,-2.8V627m-.2,-3.6v4.5m-.2,-4.5v5.3m-.3,-5.3v6.1m-.2,-6.1v6.9m-.2,-6.9v7.8m-.2,-7.8V632m-.2,-8.6v9.4m-.3,-9.4v10.2m-.2,-10.2v11m-.2,-11v11.9m-.2,-11.9v12.7m-.2,-12.7v13.5m-.3,-13.5v14.3m-.2,-14.3v15.1m-3.9,-15.1v.4m0,-.4v.4m.2,-.4v1.2m.2,-1.2v2m.2,-2v2.8m.2,-2.8V627m.3,-3.6v4.5m.2,-4.5v5.3m.2,-5.3v6.1m.2,-6.1v6.9m.2,-6.9v7.8m.3,-7.8V632m.2,-8.6v9.4m.2,-9.4v10.2m.2,-10.2v11m.2,-11v11.9m.3,-11.9v12.7m.2,-12.7v13.5m.2,-13.5v14.3m.2,-14.3v15.1M925.4,412.3l9.7,4.7l9.8,4.8l5.2,2.6m5.9,2.8l11.6,5.7m5.9,2.9l5.2,2.6l9.8,4.7l9.7,4.8m5.3,-32.7l9.7,4.8l9.7,4.8l5.3,2.5m5.8,2.9l11.7,5.7m5.8,2.8l5.3,2.6l9.7,4.8l9.7,4.7M953.3,473.2l-.6,-10.8l-.6,-10.8l-3.2,-58m-.3,-6.5l-.7,-13m-.4,-6.4l-4.3,-79.6m-.4,-6.5l-.7,-13m-.4,-6.5l-3.1,-58L938,193.3l-.6,-10.8M244.5,284.9l8.1,-8.1m-38.7,8.1l30.3,-30.3m-30.3,-.3L235.2,233m45.9,26v25.9M991.9,687.7l5,-19.5m25.7,-9.2l-4.9,19.5m33.4,-120.9l-5,19.5m103.1,-61l-4.8,18.7M710.5,330.5l-6.3,-.2l-6.5,.2l-6.3,.8M878,344.2L710.5,330.5m180.4,19.9l-1.2,-1.8l-2,-1.6L885,345.7l-3.3,-1l-3.7,-.5m16.3,11.9l-2,-2.8l-1.4,-2.9m-3.5,30.9L886,379l-.5,-2.4l.4,-2.5l1.3,-2.4l2.2,-2.2m12.5,39.2l-2.1,-7.1l-3.2,-7l-4.1,-6.7l-5.1,-6.6m22.9,31.5l-8.4,-4.1M771.1,515l4,-1.2l4.1,-1.2m-2.7,13.7L771.1,515M683.8,332.4l-5.4,-11.2m13,10.1l-7.6,1.1M886.1,459.2l3.2,58.2M777.8,513.5l4.7,9.9m11.3,-9.9l-4.4,-9.2m6.6,-1.8l3.6,7.6M919.8,404.8l-47.4,51.8M921,399.7l.2,.3l.1,.3v.7l.1,.3l-.1,.3v.5l-.1,.2l-.1,.3l-.1,.3l-.1,.3l-.2,.3l-.2,.3l-.2,.4l-.1,.1l-.1,.2l-.2,.1l-.1,.2m-47.4,51.8l-6.7,6.7l-7.6,6.5l-8.4,6.2l-9.3,6l-10.1,5.7L819.5,493L808,498l-12,4.5m76.4,-45.9h-1.7l-1.3,.8m68.7,6.7l-2.4,-.1l-2.2,-.8l-2,-1.6l-1.7,-2.4l-1.5,-3l-1.1,-3.7l-.8,-4.2l-.5,-4.7l-.1,-5.1l.3,-5.4l.6,-5.6l1,-5.7l1.3,-5.7l1.6,-5.5m-10.8,-5.8h-1.7l-1.3,.8m45.7,-16.2l-1.7,-.4l-1.7,.3l-1.8,1l-1.8,1.7l-1.9,2.4m-15.2,13.8l-1.7,5.3l-1.5,5.5l-1.1,5.7l-.7,5.6l-.4,5.5l-.1,5.2l.3,4.8l.7,4.2l1,3.7l1.4,3l1.6,2.2l1.9,1.4m-25,-52.6l1.1,-4.2l1.3,-4.1M906,406.6l6.8,3.3M907,398.6l.1,.5v1l.1,.4v1l-.1,.5v1l-.1,.2v.3l-.1,.6l-.1,.5l-.1,.2l-.1,.3v.3l-.1,.2l-.2,.5l-.3,.5m-8.9,-39.3l.9,1.5l.9,1.5l.8,1.5l.8,1.6l.8,1.7l.7,1.7l.7,1.8l.6,1.9l.6,1.9l.5,2.1l.3,1l.3,1.1l.2,1.1l.2,1.1l.5,2.3l.4,2.4l.2,1.3l.2,1.2l.1,1.3l.2,1.3M894.6,364.3l.8,1l.8,1M898.1,355l-2.4,1.6l-1.6,1.9l-.7,2l.1,1.9l1.1,1.9m6.1,-11l-1.3,.8l-1.3,.9m77.6,.3l-7.4,2l-7.7,1.5l-8,1l-8,.5l-8.1,.1l-7.9,-.5l-7.7,-1l-7.3,-1.4l-6.8,-1.9l-6.1,-2.3m5.7,-159.4l-4.5,2.5l-3.7,2.8l-3,3l-2.2,3.1l-1.3,3.2l-.4,3.3l.4,3.2l1.4,3.1l2.1,2.9l3,2.7l3.8,2.5l4.4,2.2l5.1,1.8l5.5,1.5l6,1l6.2,.6l6.5,.2l6.5,-.3l6.4,-.7l6.3,-1.1l5.9,-1.6l5.6,-1.9l5,-2.2l4.4,-2.6l3.8,-2.8l2.9,-2.9l2.2,-3.2L986,211l.5,-3.2l-.5,-3.2l-1.3,-3.1l-2.2,-3l-3,-2.7l-3.7,-2.5l-4.5,-2.2l-5,-1.8l-5.6,-1.4l-5.9,-1.1l-6.3,-.6l-6.4,-.1l-6.5,.2l-6.5,.7l-6.2,1.2l-6,1.5l-5.5,1.9l-5,2.3M991,210.7l-.3,3.3l-1.1,3.4l-2,3.3l-2.9,3.2l-3.6,3l-4.3,2.8l-5,2.5l-5.5,2.2l-6,1.8l-6.4,1.4l-6.6,1l-6.8,.6l-6.8,.2l-6.6,-.3l-6.5,-.7l-6.2,-1.2l-5.8,-1.5l-5.2,-2l-4.6,-2.3l-3.9,-2.5L891.7,226l-2.4,-3.1l-1.5,-3.2l-.6,-3.3m30,188.6l.1,-.4l.2,-.6l.1,-.5l.1,-.5v-.8l.1,-.3v-.6l-.1,-.2v-.5l-.1,-.2v-.3l-.1,-.1v-.1l-.1,-.1v-.1l-.1,-.2l-.1,-.1m71.5,59.8h-1.2l-1.2,-.1l-1.2,-.1l-1.3,-.3l-.3,-.1l-.3,-.1l-.3,-.1l-.3,-.1l-.3,-.1l-.3,-.1l-.3,-.1l-.3,-.1l-1.2,-.5l-1.2,-.6l-1.9,-1.2m-42.3,12.1l7,.7l7.3,.1l7.3,-.4l7.2,-.9l6.9,-1.3l6.6,-1.9l6.1,-2.2l5.5,-2.6M994,367.6l.4,-.4l.5,-.3l.4,-.3l.4,-.3l.8,-.5l.6,-.4l.6,-.3l.4,-.2l.2,-.1h.2v-.1h.4l.2,-.1l.2,.1l.1,.2m-7.7,-39l2.3,41.7M909,337l5.4,2l5.9,1.6l6.4,1.1l6.7,.7l6.9,.3l7,-.2l7,-.7l6.8,-1.2l6.4,-1.6l6.1,-2l5.6,-2.3l4.9,-2.7l4.2,-2.9l3.4,-3.2m-92.8,19.2l.1,-.1v-.3l.1,-.1v-.2l.1,-.3l.1,-.4l.2,-.5l.3,-.9l.4,-.9l.1,-.4l.2,-.5l.2,-.4l.2,-.4l.5,-.8l.5,-.7l.3,-.3l.3,-.3l.2,-.1l.1,-.1l.2,-.2l.2,-.1l.3,-.2l.4,-.2l.4,-.2l.4,-.1h.3l.2,-.1h1.5l.5,.1l.6,.2l.6,.1l.6,.3m-9.7,15.6l-.4,-7.5m-4,1l1.8,3.4l2.6,3.1m-4.5,-8.4l.1,1.9m-1.5,-16.4l.1,1.4l.1,1.6l.1,1.6l.1,.8l.1,.9l.1,.8v.8l.2,1.7l.2,1.6l.1,.9l.1,.8l.1,.4v.6l.1,.2v.4M957,375.8l2.1,1.6l1.9,2.4l1.7,3l1.4,3.7l1,4.2M906,406.6l-.2,.2l-.2,.2l-.2,.2l-.2,.2l-.1,.1l-.1,.1h-.2l-.1,.1l-.2,.2l-.3,.1l-.3,.1l-.2,.1l-.2,.1l-.1,.1h-.3l-.3,.1l-.3,.1h-.3v.1h-.3M907,398.6l-1.4,1.1l-.6,1.1m0,0l-.2,-1.2l-.3,-1.2l-.2,-1.2l-.3,-1.1l-.5,-2.2l-.6,-2.1l-.1,-.5l-.2,-.6l-.1,-.2v-.3l-.1,-.2l-.1,-.3l-.3,-.9l-.3,-1l-.7,-1.9l-.7,-1.8l-.8,-1.7l-.8,-1.6l-.8,-1.6l-.9,-1.6l-.9,-1.4l-.9,-1.5l-.9,-1.3L893.2,372m0,0l.5,-2l1.4,-1.7l2,-1m8.9,39.3l-.6,-.5l-.3,-.5m0,0l.1,-.1v-.2l.1,-.1v-.4l.1,-.1v-2l-.1,-.3v-.2l-.1,-.3v-.3l-.1,-.3v-.2l-.1,-.3M890.8,369l.4,7.5m2,-4.5L892,370.5L890.8,369m.4,7.5l5.9,7.9l4.6,8.1l3.3,8.3" class="g1_1" />
<path d="M68.9,554.2l.4,.8l.3,.6l.5,.5l.5,.6l.6,.6l.5,.5l.6,.4l.6,.5l.5,.4l.7,.4l.6,.4v-4l.2,-.6l.5,-.5H76l3.7,1.1l.6,.2l.5,.3l.3,.4l.3,.6v2.8l-.2,.6l-.6,.5H80l-5.3,-1.4M73.8,526v7.6m-3.7,-3.8h7.6m3.9,3.8V526m-3.5,-5.2l-7.2,-1.9l-.8,-.3l-.5,-.4l-.4,-.7l-.3,-.7v-.7l.3,-.7l.3,-.6l.6,-.5l.6,-.3l.8,-.2h.6l7.4,2l.7,.3l.6,.5l.3,.6l.3,.8v.6l-.2,.8l-.4,.6l-.5,.5l-.8,.3l-.6,.1l-.8,-.1m4.7,-8.4L80.5,512M68.9,500.2v4.3l5.8,1.8v-3.6l.4,-.5l.4,-.1H76l4,1.1l.5,.1l.4,.3l.2,.3l.3,.5V508M239.1,773.3h-5.4l5.1,-5.5l.6,-.6l.8,-1.1l.3,-.7l.5,-.8v-.5l.1,-.4l.2,-.7l-.2,-.6l-.3,-.6l-.4,-.5l-.6,-.4l-.7,-.2h-.6l-.6,.3l-.6,.3l-.5,.7l-.1,.6m13.6,-1.9l-.8,.5l-.6,.3l-.5,.5l-.6,.4l-.6,.6l-.5,.5l-.5,.6l-.4,.6l-.5,.5l-.3,.8l-.5,.6h4.1l.6,.2l.4,.4v.6l-1,3.8l-.2,.6l-.3,.4l-.5,.3l-.6,.4h-2.8l-.6,-.2l-.4,-.6v-.6l1.3,-5.3m33.9,-.9h-7.6m3.9,-3.7v7.5m-3.9,3.9h7.6m5.3,-3.4l1.8,-7.3l.3,-.7l.5,-.5l.6,-.5l.8,-.3h.6l.8,.3l.6,.3l.5,.7l.3,.6l.1,.8v.6l-2,7.4l-.3,.6l-.4,.6l-.7,.3l-.7,.4h-.7l-.7,-.2l-.7,-.5l-.4,-.4l-.3,-.8l-.2,-.6l.2,-.8m8.3,4.6l.5,-2.3m11.7,-11.6h-4.3l-1.7,5.9h3.6l.4,.3l.2,.5v.4l-1.1,4.1l-.1,.4l-.4,.5l-.3,.1l-.4,.4h-3.6M374.7,364.7l-4.8,-12l-.8,5.1m7.9,1.1L374,352l-.2,-.8l.1,-.6l.2,-.8l.5,-.7l.4,-.4l.8,-.2l.7,-.1l.8,.2l.6,.3l.6,.5l.4,.5l2.8,7.2l.2,.6v.8l-.3,.6l-.5,.7l-.4,.4l-.8,.4h-.7l-.7,-.1l-.7,-.4l-.5,-.4l-.3,-.8m9.7,-13.8l-4.1,-1.7m.3,2.3l3.5,-2.7m-1.4,3.5l-.7,-4.4M363.8,373l-4.9,-12l2.4,-1.8l.6,-.2l.6,-.2l.6,.2l.7,.4l.2,.6l.9,2.1l.2,.8l-.2,.8l-.6,.6l-3.2,2.4m7,3L363,365.3M528.5,551.9l9.4,4.8v-5.4m-3,.9l6.1,1.7m-11.6,-9.1l-.9,-.3v-6.2l12.5,7.4m1.4,-8.1l-2.3,-.4M528.5,525.4v4.4l5.9,1.7v-3.6l.3,-.5l.5,-.1h.4l4,1.1l.5,.1l.5,.3l.1,.3l.3,.5v3.6m-8.3,-16.1l-3.9,2.1m2,1.3V516m1.9,3.2l-3.9,-2.1" class="g4_1" />
<path d="M161.9,600.7v-65m-6.7,27.4L161.9,538m0,0l6.7,25.1m243.5,37.6v-65m-6.8,27.4L412.1,538m0,0l6.7,25.1M360.1,284.9h51.3M360.1,259h51.3m-8.7,-70.2v134m0,-37.9l-4,15.2m0,0h8.1m0,0l-4.1,-15.2m-3.9,15.2v-.4m0,.4v-.4m.2,.4v-1.2m.2,1.2v-2m.2,2v-2.8m.2,2.8v-3.7m.3,3.7v-4.5m.2,4.5v-5.3m.2,5.3V294m.2,6.1v-6.9m.2,6.9v-7.8m.3,7.8v-8.6m.2,8.6v-9.4m.2,9.4V289.9m.2,10.2V289m.2,11.1V288.2m.3,11.9V287.4m.2,12.7V286.6m.2,13.5V285.8m.2,14.3V284.9m4,15.2v-.4m0,.4v-.4m-.2,.4v-1.2m-.3,1.2v-2m-.2,2v-2.8m-.2,2.8v-3.7m-.2,3.7v-4.5m-.2,4.5v-5.3m-.3,5.3V294m-.2,6.1v-6.9m-.2,6.9v-7.8m-.2,7.8v-8.6m-.2,8.6v-9.4m-.3,9.4V289.9m-.2,10.2V289m-.2,11.1V288.2m-.2,11.9V287.4m-.2,12.7V286.6m-.3,13.5V285.8m-.2,14.3V284.9m0,-25.9l4.1,-15.2m0,0h-8.1m0,0l4,15.2m4,-15.2v.4m0,-.4v.4m-.2,-.4V245m-.3,-1.2v2m-.2,-2v2.8m-.2,-2.8v3.7m-.2,-3.7v4.5m-.2,-4.5v5.3m-.3,-5.3v6.1m-.2,-6.1v6.9m-.2,-6.9v7.8m-.2,-7.8v8.6m-.2,-8.6v9.4m-.3,-9.4V254m-.2,-10.2v11.1m-.2,-11.1v11.9m-.2,-11.9v12.7m-.2,-12.7v13.5m-.3,-13.5v14.3m-.2,-14.3V259m-3.9,-15.2v.4m0,-.4v.4m.2,-.4V245m.2,-1.2v2m.2,-2v2.8m.2,-2.8v3.7m.3,-3.7v4.5m.2,-4.5v5.3m.2,-5.3v6.1m.2,-6.1v6.9m.2,-6.9v7.8m.3,-7.8v8.6m.2,-8.6v9.4m.2,-9.4V254m.2,-10.2v11.1m.2,-11.1v11.9m.3,-11.9v12.7m.2,-12.7v13.5m.2,-13.5v14.3m.2,-14.3V259m-42.6,25.9v38.7M213.9,284.9v38.7M360.1,315H213.9m146.2,0l-15.2,-4.1m0,0V319m0,0l15.2,-4m-15.2,-4h.4m-.4,0h.4m-.4,.2h1.2m-1.2,.2h2m-2,.3h2.9m-2.9,.2h3.7m-3.7,.2h4.5m-4.5,.2h5.3m-5.3,.2h6.2m-6.2,.3h7m-7,.2h7.8m-7.8,.2h8.6m-8.6,.2h9.4m-9.4,.2h10.3m-10.3,.3H356m-11.1,.2h11.9m-11.9,.2h12.7m-12.7,.2h13.5m-13.5,.2h14.4m-14.4,.3h15.2m-15.2,3.9h.4m-.4,0h.4m-.4,-.2h1.2m-1.2,-.2h2m-2,-.2h2.9m-2.9,-.3h3.7m-3.7,-.2h4.5m-4.5,-.2h5.3m-5.3,-.2h6.2m-6.2,-.2h7m-7,-.3h7.8m-7.8,-.2h8.6m-8.6,-.2h9.4m-9.4,-.2h10.3m-10.3,-.2H356m-11.1,-.3h11.9m-11.9,-.2h12.7m-12.7,-.2h13.5m-13.5,-.2h14.4M344.9,315h15.2m-146.2,0l15.1,4m0,0v-8.1m0,0L213.9,315m15.1,3.9h-.4m.4,0h-.4m.4,-.2h-1.2m1.2,-.2h-2m2,-.2h-2.8M229,318h-3.6m3.6,-.2h-4.5m4.5,-.2h-5.3m5.3,-.2h-6.1m6.1,-.2h-6.9m6.9,-.3h-7.8m7.8,-.2h-8.6m8.6,-.2h-9.4m9.4,-.2H218.8m10.2,-.2H218m11,-.3H217.1m11.9,-.2H216.3m12.7,-.2H215.5m13.5,-.2H214.7M229,315H213.9M229,311h-.4m.4,0h-.4m.4,.2h-1.2m1.2,.2h-2m2,.3h-2.8m2.8,.2h-3.6m3.6,.2h-4.5m4.5,.2h-5.3m5.3,.2h-6.1m6.1,.3h-6.9m6.9,.2h-7.8m7.8,.2h-8.6m8.6,.2h-9.4m9.4,.2H218.8m10.2,.3H218m11,.2H217.1m11.9,.2H216.3m12.7,.2H215.5m13.5,.2H214.7M229,315H213.9m0,-30.1H155.2M213.9,233H155.2m8.7,-8.2v68.3m0,-8.2l4,-15.1m0,0h-8.1m0,0l4.1,15.1m3.9,-15.1v.4m0,-.4v.4m-.2,-.4V271m-.2,-1.2v2m-.2,-2v2.8m-.2,-2.8v3.6m-.3,-3.6v4.5m-.2,-4.5v5.3m-.2,-5.3v6.1m-.2,-6.1v6.9m-.2,-6.9v7.8m-.3,-7.8v8.6m-.2,-8.6v9.4m-.2,-9.4V280M165,269.8v11m-.2,-11v11.9m-.3,-11.9v12.7m-.2,-12.7v13.5m-.2,-13.5v14.3m-.2,-14.3v15.1m-4,-15.1v.4m0,-.4v.4m.2,-.4V271m.3,-1.2v2m.2,-2v2.8m.2,-2.8v3.6m.2,-3.6v4.5m.2,-4.5v5.3m.3,-5.3v6.1m.2,-6.1v6.9m.2,-6.9v7.8m.2,-7.8v8.6m.2,-8.6v9.4m.3,-9.4V280m.2,-10.2v11m.2,-11v11.9m.2,-11.9v12.7m.2,-12.7v13.5m.3,-13.5v14.3m.2,-14.3v15.1m0,-51.9l-4.1,15.1m0,0h8.1m0,0l-4,-15.1m-4,15.1v-.3m0,.3v-.3m.2,.3v-1.2m.3,1.2v-2m.2,2v-2.8m.2,2.8v-3.6m.2,3.6v-4.5m.2,4.5v-5.3m.3,5.3V242m.2,6.1v-6.9m.2,6.9v-7.7m.2,7.7v-8.6m.2,8.6v-9.4m.3,9.4V237.9m.2,10.2v-11m.2,11V236.3m.2,11.8V235.4m.2,12.7V234.6m.3,13.5V233.8m.2,14.3V233m3.9,15.1v-.3m0,.3v-.3m-.2,.3v-1.2m-.2,1.2v-2m-.2,2v-2.8m-.2,2.8v-3.6m-.3,3.6v-4.5m-.2,4.5v-5.3m-.2,5.3V242m-.2,6.1v-6.9m-.2,6.9v-7.7m-.3,7.7v-8.6m-.2,8.6v-9.4m-.2,9.4V237.9m-.2,10.2v-11m-.2,11V236.3m-.3,11.8V235.4m-.2,12.7V234.6m-.2,13.5V233.8m-.2,14.3V233M324.6,570.4l177.7,15M324.6,501.1L502.3,486m-8.6,98.7l1.5,-24.5l.6,-24.5l-.6,-24.5l-1.5,-24.5m0,98l5.2,-14.8m0,0l-8.1,-.6m0,0l2.9,15.4m5.1,-14.8v.4m0,-.4v.4m-.2,-.4l-.1,1.2m-.1,-1.2l-.2,2m0,-2.1l-.3,2.9m0,-2.9l-.2,3.7m0,-3.7l-.3,4.5m.1,-4.5l-.4,5.3m.2,-5.3l-.5,6.1m.3,-6.1l-.6,6.9m.3,-7l-.6,7.8m.4,-7.8l-.6,8.6m.4,-8.6l-.7,9.4m.5,-9.4l-.8,10.2m.6,-10.2l-.9,11m.6,-11l-.9,11.8m.7,-11.9l-1,12.7m.8,-12.7l-1,13.5m.8,-13.5L494,583.9m.9,-14.3l-1.2,15.1m-2.8,-15.4v.4m0,-.4v.4m.2,-.4l-.1,1.2m.4,-1.2l-.2,2m.4,-2l-.2,2.9m.4,-2.8l-.3,3.6m.5,-3.6l-.3,4.4m.5,-4.4l-.4,5.3m.7,-5.3l-.5,6.1m.7,-6.1l-.6,6.9m.8,-6.9l-.6,7.8m.8,-7.7l-.7,8.5m.9,-8.5l-.7,9.4m1,-9.4l-.8,10.2m1,-10.2l-.9,11m1.1,-11l-.9,11.9m1.1,-11.9l-1,12.7m1.2,-12.6l-1,13.4m1.3,-13.4l-1.2,14.3m1.4,-14.3l-1.2,15.1m0,-98l-2.9,15.5m0,0l8.1,-.7m0,0l-5.2,-14.8m-2.8,15.4v-.3m0,.3v-.3m.2,.3l-.1,-1.2m.4,1.2l-.2,-2m.4,2l-.2,-2.8m.4,2.8l-.3,-3.7m.5,3.7l-.3,-4.5m.5,4.4l-.4,-5.2m.7,5.2l-.5,-6.1m.7,6.1l-.6,-6.9m.8,6.9l-.6,-7.8m.8,7.8l-.7,-8.6m.9,8.6l-.7,-9.4m1,9.3l-.8,-10.2m1,10.2l-.9,-11m1.1,11l-.9,-11.8m1.1,11.8l-1,-12.7m1.2,12.7l-1,-13.5m1.3,13.5l-1.2,-14.3m1.4,14.2l-1.2,-15.1m5.1,14.8v-.3m0,.3v-.3m-.2,.3l-.1,-1.1m-.1,1.2l-.2,-2m0,2l-.3,-2.9m0,2.9l-.2,-3.7m0,3.7l-.3,-4.5m.1,4.5l-.4,-5.3m.2,5.4l-.5,-6.2m.3,6.2l-.6,-7m.3,7l-.6,-7.8m.4,7.8l-.6,-8.6m.4,8.6l-.7,-9.4m.5,9.4l-.8,-10.2m.6,10.3l-.9,-11.1m.6,11.1l-.9,-11.9m.7,11.9l-1,-12.7m.8,12.7l-1,-13.5m.8,13.5L494,487.5m.9,14.3l-1.2,-15.1M274.2,565.3l41.2,-128m-41.2,128l8.5,-13.2m0,0L275,549.6m0,0l-.8,15.7m8.4,-13.2l-.1,.3m.1,-.3l-.1,.3m-.1,-.4l-.4,1.1m.2,-1.2l-.6,2m.4,-2l-.9,2.7m.7,-2.8l-1.2,3.5m.9,-3.6l-1.3,4.3m1.1,-4.3l-1.6,5m1.4,-5.1l-1.9,5.8m1.7,-5.9l-2.1,6.6m1.9,-6.6l-2.4,7.4m2.2,-7.5l-2.6,8.2m2.4,-8.3l-2.9,9m2.7,-9l-3.2,9.7m3,-9.8l-3.4,10.5m3.2,-10.6L276,562.4m3.4,-11.3l-3.8,12M279.2,551l-4.1,12.9m3.9,-13l-4.4,13.7m4.2,-13.7l-4.6,14.4m.9,-15.7l-.2,.4m.2,-.4l-.2,.4m.4,-.3l-.4,1.2m.6,-1.1l-.7,1.9m.9,-1.9l-.9,2.8m1.1,-2.7l-1.1,3.5m1.3,-3.4l-1.4,4.2m1.6,-4.2l-1.6,5.1m1.8,-5l-1.9,5.8m2.1,-5.7l-2.1,6.6m2.3,-6.5l-2.3,7.3m2.5,-7.3l-2.6,8.2m2.9,-8.1l-2.9,8.9m3.1,-8.8l-3.2,9.7m3.4,-9.7L274.4,561M278,550.6l-3.7,11.3m3.9,-11.2l-3.9,12m4.1,-12l-4.1,12.9m4.3,-12.8l-4.4,13.6m4.6,-13.5l-4.6,14.4m-30,178.5H80.3M244.2,327.6H80.3M89,743.8V327.6m0,416.2l4,-15.1m0,0H84.9m0,0L89,743.8m3.9,-15.1v.3m0,-.3v.3m-.2,-.3v1.2m-.2,-1.2v2m-.2,-2v2.8m-.2,-2.8v3.6m-.3,-3.6v4.4m-.2,-4.4V734m-.2,-5.3v6.1m-.2,-6.1v6.9M91,728.7v7.7m-.3,-7.7v8.5m-.2,-8.5v9.4m-.2,-9.4v10.2m-.2,-10.2v11m-.2,-11v11.8m-.3,-11.8v12.6m-.2,-12.6v13.5m-.2,-13.5V743M89,728.7v15.1M85,728.7v.3m0,-.3v.3m.2,-.3v1.2m.3,-1.2v2m.2,-2v2.8m.2,-2.8v3.6m.2,-3.6v4.4m.2,-4.4V734m.3,-5.3v6.1m.2,-6.1v6.9m.2,-6.9v7.7m.2,-7.7v8.5m.2,-8.5v9.4m.3,-9.4v10.2m.2,-10.2v11m.2,-11v11.8m.2,-11.8v12.6m.2,-12.6v13.5m.3,-13.5V743M89,728.7v15.1M89,327.6l-4.1,15.2m0,0H93m0,0L89,327.6m-4,15.2v-.4m0,.4v-.4m.2,.4v-1.2m.3,1.2v-2m.2,2v-2.9m.2,2.9v-3.7m.2,3.7v-4.5m.2,4.5v-5.3m.3,5.3v-6.1m.2,6.1v-7m.2,7V335m.2,7.8v-8.6m.2,8.6v-9.4m.3,9.4V332.5m.2,10.3V331.7m.2,11.1V330.9m.2,11.9V330.1m.2,12.7V329.3m.3,13.5V328.4m.2,14.4V327.6m3.9,15.2v-.4m0,.4v-.4m-.2,.4v-1.2m-.2,1.2v-2m-.2,2v-2.9m-.2,2.9v-3.7m-.3,3.7v-4.5m-.2,4.5v-5.3m-.2,5.3v-6.1m-.2,6.1v-7m-.2,7V335m-.3,7.8v-8.6m-.2,8.6v-9.4m-.2,9.4V332.5m-.2,10.3V331.7m-.2,11.1V330.9m-.3,11.9V330.1m-.2,12.7V329.3m-.2,13.5V328.4M89,342.8V327.6M324.6,739.5v50M213.9,729v60.5m110.7,-8.7H213.9m110.7,0l-15.2,-4" class="g1_1" />
<path d="M838.9,841l3,-11.2l.1,-.1l.2,-.2h.9l.3,.2l.2,.3v.5l-2.5,3.2l.3,-.3l.5,-.2l.4,-.1h2.1l.3,.1l.3,.2l.1,.1v.8l-1.8,7.1l-.2,.2l-.3,.3l-.5,.2h-2.9l-.1,-.2l-.4,-.3V841m1.9,-6.8l.3,-.5m13.8,8.4L851,829.5m13.5,12.6h-5.4l5.1,-5.5l.6,-.6l.7,-1.1l.4,-.7l.4,-.8v-.5l.2,-.4l.1,-.7l-.1,-.6l-.3,-.6l-.5,-.5l-.6,-.4l-.6,-.2h-.7l-.6,.3l-.6,.3l-.5,.7l-.1,.6m8.8,10.7l3.4,-12.6l-3.7,3.6m5.1,7.1l.8,-2.9l.3,-.7l.3,-.6l.6,-.3l.6,-.3h2.2l.6,-.2l.6,-.1l.5,-.5l.5,-.4l.1,-.7l.6,-2.1v-.6l-.1,-.5l-.3,-.3l-.5,-.3l-.5,-.2h-1.5l-.6,.2l-.6,.1l-.5,.5l-.5,.5l-.3,.6l-.4,2.1l-.2,.5l.2,.6l.3,.3l.4,.3l.7,.2m-3.3,4.8v.6l.2,.5l.3,.4l.4,.2l.5,.2h1.5l.7,-.2l.6,-.2l.6,-.4l.3,-.5l.3,-.6l.8,-3.1v-.5l-.2,-.4l-.3,-.5l-.4,-.3h-.5m7,6.7l3.4,-12.6l-3.8,3.6m11.2,4.5h-5.3m11,4.5l3.4,-12.6l-3.7,3.6m7.7,-2.6l.3,-1h6.2l-7.4,12.6m9.3,-3.3l1.8,-7.3l.3,-.7l.5,-.5l.6,-.5l.8,-.3h.6l.8,.3l.6,.3l.5,.7l.3,.6l.1,.8v.6l-2,7.4l-.3,.6l-.4,.6l-.7,.3l-.7,.4h-.7l-.7,-.2l-.6,-.5L920,841l-.3,-.8l-.2,-.6l.2,-.8m13.6,3.3h-5.4l5.1,-5.5l.6,-.6l.8,-1.1l.3,-.7l.4,-.8v-.5l.2,-.4l.2,-.7l-.2,-.6l-.3,-.6l-.5,-.5l-.6,-.4l-.6,-.2h-.6l-.6,.3l-.7,.3l-.4,.7l-.2,.6m7.1,7.4l1.9,-7.3l.3,-.7l.5,-.5l.6,-.5l.8,-.3h.6l.7,.3l.7,.3l.4,.7l.3,.6l.2,.8v.6l-2,7.4l-.3,.6l-.5,.6l-.6,.3l-.8,.4h-.6l-.8,-.2l-.6,-.5l-.5,-.4l-.3,-.8l-.1,-.6l.1,-.8m13.6,3.3h-5.4l5.1,-5.5l.7,-.6l.7,-1.1l.3,-.7l.5,-.8v-.5l.2,-.4l.1,-.7l-.1,-.6l-.4,-.6l-.4,-.5l-.6,-.4l-.7,-.2h-.6l-.6,.3l-.6,.3l-.5,.7l-.1,.6m8.8,10.7l3.4,-12.6l-3.7,3.6m13.3,9l3.4,-12.6h2.5l.7,.2l.6,.3l.5,.6l.3,.6v.8l-.1,.8l-.5,.7l-.3,.7l-.6,.6l-.6,.4l-.5,.2h-3.7m-1.7,6.7h4.5l.6,-.4l.6,-.3l.5,-.6l.4,-.4l.3,-1l.2,-.9l-.2,-1.1l-.3,-.9l-.4,-.8l-.8,-.3m7.4,-2.3l-2,7.6v.4l.2,.5l.4,.3l.5,.2h1.7l.6,-.2l.5,-.2l.3,-.4l.3,-.6m2,-7.6l-2.3,9m3.2,0l4.7,-9h2.1l-2.3,9m5.6,-9l-2.3,9m6,-9l-5,4.9m.8,-.6l2.6,4.7m10.1,-9l-2.2,8.5l-.1,.1l-.2,.2l-.4,.2h-3.1l-.2,-.2l-.3,-.3V841l1.7,-6.5l.2,-.5l.3,-.3l.3,-.3l.4,-.2l.5,-.1h3.1m-2.2,8v.3l.2,.2l.1,.3l.2,.2h.8m14,0l3.5,-12.6l-3.8,3.6m15.7,0l-2.1,7.6v.4l.2,.5l.5,.3l.4,.2h1.7l.7,-.2l.4,-.2l.3,-.4l.3,-.6m2,-7.6l-2.3,9m16.9,0h-5.4l5.1,-5.5l.6,-.6l.8,-1.1l.3,-.7l.4,-.8v-.5l.2,-.4l.1,-.7l-.1,-.6l-.3,-.6l-.5,-.5l-.6,-.4l-.6,-.2h-.6l-.7,.3l-.6,.3l-.4,.7l-.2,.6m14.9,10.7l2.3,-9h2.9l.3,.1h.3l.3,.2l.2,.3l.2,.3v.6l-2.1,7.5m7.8,0h-2.2l-.6,-.2l-.5,-.2l-.3,-.4l-.3,-.5l-.1,-.4l.1,-.7l1.4,-5.2l.2,-.5l.3,-.3l.3,-.3l.4,-.2l.5,-.1h1.7l.5,.1l.4,.3l.2,.5v.5l-.9,3.1h-4.4m6.1,8l2.7,-12.5h3l.3,.1h.3l.3,.2l.2,.3l.1,.3v.6l-1.7,6.1l-.3,.6l-.3,.4l-.5,.2l-.6,.2h-3.1m12.2,0h-2.1l-.6,-.2l-.5,-.2l-.3,-.4l-.3,-.5l-.2,-.4l.2,-.7l1.4,-5.2l.1,-.5l.3,-.3l.3,-.3l.5,-.2l.5,-.1h1.7l.4,.1l.5,.3l.2,.5v.5l-1,3.1h-4.3m10.7,-8.1h2.4l.5,.2l.3,.4v.5l-2.8,10.8l-.1,.2l-.3,.3l-.5,.2H1103l-.2,-.2l-.3,-.3V841l1.7,-6.5l.2,-.5l.3,-.3l.3,-.3l.4,-.2l.5,-.1h2l.3,.1l.3,.2l.2,.1l.1,.5m8.9,-.9l-2.2,8.5l-.2,.1l-.1,.2l-.5,.2h-3.1l-.1,-.2l-.3,-.3V841l1.7,-6.5l.1,-.5l.3,-.3l.3,-.3l.5,-.2l.5,-.1h3.1m-2.2,8v.3l.1,.2l.2,.3l.2,.2h.7m5.1,-9l-.9,3.5v.5l.2,.3l.1,.3l.3,.3h3.6m-1.1,4.1l2.3,-9m3.3,0l-2,7.6v.4l.1,.5l.5,.3l.4,.2h1.7l.7,-.2l.4,-.2l.3,-.4l.3,-.6m2.1,-7.6l-2.4,9m10.9,0l-3.9,-12.6m9.1,10.2l2.2,-8.8l.1,-.4l.3,-.4l.4,-.3l.4,-.1l.5,-.2h2.8l.4,.2l.5,.3l.2,.5v.4l-2.7,9.8l-.3,.6l-.3,.4l-.6,.2l-.5,.2h-1.7l-.6,-.2l-.6,-.3l-.3,-.5l-.3,-.6l.1,-.8m12.5,2.4H1158l-.3,-.2l-.3,-.2l-.1,-.3l-.2,-.3v-.3l.2,-.3l-.2,.3v.3l.2,.3l.1,.3l.3,.2l.3,.2h2.3m-3,-1.6l1.5,-6l-1.5,6m1.5,-6l.3,-.6l.3,-.4l.6,-.3l.5,-.1h1.9m3.5,0l-2.3,9m1.2,-5h3.6m-1.2,5l2.3,-9m8.6,0l-2.1,8.5l-.2,.1l-.1,.2l-.5,.2h-3.1l-.2,-.2l-.3,-.3V841l1.7,-6.5l.2,-.5l.3,-.3l.3,-.3l.5,-.2l.4,-.1h3.1m-2.1,8v.3l.1,.2l.2,.3l.1,.2h.8m6.3,0h-2.3l-.3,-.2l-.3,-.2l-.1,-.3l-.2,-.3v-.3l.2,-.3l-.2,.3v.3l.2,.3l.1,.3l.3,.2l.3,.2h2.3m-3,-1.6l1.5,-6l-1.5,6m1.5,-6l.3,-.6l.3,-.4l.6,-.3l.5,-.1h1.9m1.2,9l2.3,-9m3.6,0l-2.3,9m-1.3,-9h5.9l.3,.1l.3,.2l.3,.3v.8l-2,7.6m5.6,-9l-2.3,9m6,-9l-5,4.9m.8,-.6l2.6,4.7m10.1,-9l-2.2,8.5l-.1,.1l-.2,.2l-.4,.2h-3.1l-.2,-.2l-.3,-.3V841l1.7,-6.5l.2,-.5l.3,-.3l.3,-.3l.4,-.2l.5,-.1h3.1m-2.2,8v.3l.2,.2l.1,.3l.2,.2h.8m10.3,0l-3.8,-12.6M420.7,583.4l6.8,-25.1h5.9l1.2,.3l1.3,.6l.6,1l.6,1.5l-.3,1.2l-4.6,17.4l-.4,.9l-.6,.9l-.9,.6l-1.2,.7h-8.4m-284.8,0l6.8,-25.1h5.9l1.2,.3l1.3,.6l.6,1l.6,1.5l-.3,1.2l-4.6,17.4l-.4,.9l-.6,.9l-.9,.6l-1.2,.7h-8.4M264.4,202.1l4.7,-17.5h4.1l.9,.2l.9,.4l.4,.7l.4,1l-.2,.9l-3.2,12.1l-.2,.7l-.5,.6l-.6,.5l-.9,.4h-5.8m22.5,-6.3h-7.4m11.7,6.3L296,184.6h4.1l.9,.2l.8,.4l.5,.7l.4,1l-.2,.9l-3.3,12.1l-.2,.7l-.4,.6l-.7,.5l-.8,.4h-5.9m91.4,41.2l.5,.8l.3,.6l.5,.4l.4,.7l.6,.6l.5,.4l.6,.5l.6,.5l.5,.4l.8,.3l.6,.5v-4l.1,-.6l.5,-.5h.6l3.7,1.1l.7,.1l.4,.3l.3,.5l.3,.6v2.8l-.1,.6l-.6,.5h-.6L388.5,249m-.9,-33.9v7.6m-3.7,-3.9h7.5m3.9,3.9v-7.6m-3.4,-5.2L384.6,208l-.7,-.3l-.5,-.5l-.5,-.6l-.3,-.7v-.7l.3,-.7l.3,-.7l.7,-.4l.6,-.3l.7,-.2h.7l7.4,2l.6,.3l.6,.5l.3,.6l.3,.8v.6l-.1,.8l-.5,.6l-.4,.5l-.8,.3l-.6,.1l-.8,-.1m4.6,-8.4l-2.3,-.4M382.6,189.3v4.3l5.9,1.7v-3.5l.3,-.5l.5,-.1h.4l4.1,1l.4,.2l.5,.3l.1,.3l.3,.5V197M255.3,294.8h4.4l-4.8,5.5l.9,.4l.6,.6l.5,.8l.3,.9v1l-.2,.9l-.3,.8l-.6,.7l-.8,.5l-.9,.3l-.9,.2h-1.6m14.3,-12.6l-4.8,9.5h5.4m-.9,-3.1l-1.7,6.2m32,-7.6h-7.6m3.9,-3.7v7.6m-3.9,3.8h7.6m5.2,-3.4l1.9,-7.2l.3,-.8l.5,-.5l.6,-.4l.8,-.4h.6l.7,.4l.7,.3l.4,.6l.3,.6l.2,.8v.6l-2,7.4l-.3,.6l-.5,.7l-.6,.3l-.8,.3h-.6l-.8,-.2l-.6,-.4l-.5,-.5l-.3,-.8l-.1,-.6l.1,-.8m8.4,4.7l.4,-2.4M322,294.8h-4.3l-1.7,5.9h3.5l.5,.3l.1,.5v.5l-1,4l-.2,.4l-.3,.5l-.3,.2l-.5,.3h-3.5M156.3,290l-12.5,-3.4l3.5,3.8m9,-9.6v5.4l-5.4,-5.1l-.6,-.6l-1.1,-.8l-.8,-.3l-.8,-.5h-.4l-.5,-.1l-.6,-.2l-.6,.2l-.6,.3l-.5,.4l-.5,.6l-.1,.7v.6l.3,.6l.3,.6l.6,.5l.6,.1m3.1,-32.1v7.5M145,254.8h7.6m3.9,3.8v-7.5m-3.4,-5.3L145.8,244l-.8,-.4l-.5,-.4l-.4,-.6l-.3,-.8v-.6l.3,-.8l.3,-.6l.6,-.5l.6,-.3l.8,-.2h.6l7.4,2.1l.7,.3l.6,.4l.3,.7l.3,.7v.6l-.2,.8l-.4,.6l-.5,.5l-.8,.3l-.6,.2l-.7,-.2m4.6,-8.3l-2.3,-.5M143.8,225.2v4.4l5.9,1.7v-3.6l.3,-.5l.4,-.1h.5l4,1.1l.5,.1l.4,.3l.2,.3l.3,.5V233M488.2,544.5l-12.5,-3.4l3.5,3.7m5.7,-5.6l-7.2,-1.9l-.8,-.3l-.5,-.4l-.4,-.7l-.3,-.7v-.6l.3,-.8l.3,-.6l.6,-.5l.6,-.3l.8,-.2h.6l7.4,2l.6,.4l.7,.4l.3,.6l.3,.8v.6l-.2,.8l-.4,.6l-.5,.5l-.8,.3l-.6,.1l-.8,-.1m-7.5,-11v-1.4L476,525.4h-1.4l-1.6,1.4v1.4l1.6,1.4H476l1.4,-1.4M266.1,478.3l-.8,-.6l1.9,-5.9l9.7,10.9M265.8,453.1l1.6,-5m-3.1,1l4.6,3.1m.9,-7.5l-6.3,-4l-.7,-.6l-.3,-.5l-.2,-.8l-.1,-.8l.2,-.6l.5,-.6l.5,-.5l.7,-.3l.7,-.1l.8,.1l.6,.2l6.5,4.2l.4,.5l.5,.6l.1,.7l.1,.8l-.2,.6l-.4,.7l-.7,.4l-.5,.3l-.9,.1h-.6l-.7,-.4m7,-6.5L274.7,437m-7.4,-14.7l-1.3,4.1l5,3.4l1,-2.9l.1,-.5l.5,-.3h.4l.5,.1l3.5,2.3l.4,.3l.3,.4l.1,.3l.1,.6l-.1,.4l-1,3m-4,61.8l-10.9,-7l.9,-2.8l.4,-.6l.5,-.5l.5,-.1l.8,-.1l.6,.4l1.8,1.2l.7,.5l.2,.8l-.1,.8l-1.2,3.8m7.5,-1.5l-6.8,-.7M75.5,564.3V568l-.3,.6l-.6,.3L74,569h-.6l-3.1,-.7l-.5,-.2l-.3,-.3l-.3,-.5L69,567l-.1,-.4v-1.7l.1,-.6l.3,-.7l.5,-.3l.8,-.3l.6,.2l4.3,1.1l.8,.4l.6,.3l.6,.5l.5,.5l.6,.4l.6,.5l.5,.6l.5,.6l.4,.5l.5,.6l.3,.6M514.5,822.9l-.2,1m1.7,-6.2l-.3,.8M157,842.1l-3.9,-12.6m16.1,12.6l-3.8,-12.6m8.5,12.6l2.3,-9h2.2l.4,.1l.5,.3l.1,.5v.5m1.7,6l1.6,-6l.3,-.6l.3,-.4l.6,-.3l.5,-.1h1.5l.3,.1h.4l.3,.2l.1,.3l.2,.3v.6l-1.7,6.1l-.3,.6l-.3,.4l-.5,.2l-.6,.2h-1.9l-.3,-.2l-.3,-.2l-.2,-.3l-.1,-.3v-.3l.1,-.3m7.5,.6l.4,.3l.5,.3l.5,.2l.6,.2h1.1l.6,-.2l.4,-.5l.5,-.4v-.8l-.1,-.6l-2.5,-4.2l-.2,-.6l.2,-.6l.3,-.5l.5,-.5l.6,-.1h1.1l.6,.1l.4,.2l.5,.3l.5,.3m5.2,-4.5l-3.2,12.6m4.1,-9h-2.7m10.5,0l-2.2,8.5l-.1,.1l-.2,.2l-.5,.2h-3l-.2,-.2l-.3,-.3V841l1.7,-6.5l.1,-.5l.4,-.3l.3,-.3l.4,-.2l.5,-.1H209m-2.2,8v.3l.2,.2l.1,.3l.2,.2h.8m2.7,0l2.4,-9h2.1l.5,.1l.5,.3l.1,.5v.5m7.7,3.1h-5.2m7.9,8l2.8,-12.5h2.9l.3,.1h.3l.3,.2l.2,.3l.1,.3v.6l-1.7,6.1l-.3,.6l-.3,.4l-.5,.2l-.6,.2h-3.1m13.5,-9h-2l-.5,.1l-.4,.2l-.4,.3l-.3,.3l-.1,.5l-1.7,6.5v.6l.3,.3l.1,.2h3.8l3.2,-12.6m-1.1,4.5l-.1,-.5l-.2,-.1l-.3,-.2l-.3,-.1m8.5,0h-1.9l-.4,.1l-.6,.3l-.4,.4l-.3,.6l-1.5,6l-.2,.3v.3l.2,.3l.1,.3l.4,.2l.3,.2h2.3m10.8,0l-3.9,-12.6m16.3,0h-4.3l-3.4,12.6h4.7l.4,-.2l.1,-.2l.2,-.1l.1,-.3l1.3,-4.7v-.3l-.2,-.4l-.2,-.3l-.3,-.2h-4.4m10.2,-2.3l-2,7.6v.4l.1,.5l.5,.3l.4,.2h1.7l.7,-.2l.4,-.2l.3,-.4l.3,-.6m2,-7.6l-2.3,9m5.4,-8.1l.2,-.5l.5,-.3l.4,-.1h.3l.5,.1l.5,.2l.4,.3l.2,.3l.3,.5v.9l-.3,.9l-.2,.3l-.1,.3l-.3,.4l-.3,.1l-.5,.2h-.3l.4,.1l.4,.2l.1,.1l.2,.3v.4l-.5,1.7l-.2,.4l-.1,.3l-.3,.3l-.5,.3l-.3,.2l-.5,.2h-.7l-.3,-.2l-.4,-.2l-.3,-.3l-.3,-.3m2.3,-3.5h1.1m5.6,-4.5l-2.3,9m1.2,-5h3.6m-1.3,5l2.4,-9m6.3,9h-2.2l-.6,-.2l-.4,-.2l-.4,-.4l-.3,-.5l-.1,-.4l.1,-.7l1.4,-5.2l.2,-.5l.3,-.3l.3,-.3l.5,-.2l.4,-.1h1.7l.5,.1l.5,.3l.1,.5v.5l-.9,3.1h-4.3m10,4.5h-2.3l-.3,-.2l-.3,-.2l-.2,-.3l-.1,-.3v-.3l.1,-.3l-.1,.3v.3l.1,.3l.2,.3l.3,.2l.3,.2h2.3m-3.1,-1.6l1.6,-6l-1.6,6m1.6,-6l.3,-.6l.3,-.4l.6,-.3l.5,-.1h1.8m7.7,4.5h-5.2M321,833.1l-2.4,9m1.3,-5h3.5m-1.2,5l2.3,-9m8.7,0l-2.2,8.5l-.1,.1l-.2,.2l-.5,.2h-3.1l-.1,-.2l-.3,-.3V841l1.7,-6.5l.1,-.5l.4,-.3l.3,-.3l.4,-.2l.5,-.1h3.1m-2.2,8v.3l.2,.2l.1,.3l.2,.2h.8m2.7,0l2.4,-9h2.9l.3,.1h.3l.3,.2l.2,.3l.1,.3v.6l-2,7.5m2.8,3.5l2.8,-12.5H348l.3,.1h.3l.4,.2l.1,.3l.2,.3v.6l-1.7,6.1l-.3,.6l-.4,.4l-.4,.2l-.6,.2h-3.1m14.5,-9l-2.2,8.5l-.1,.1l-.2,.2l-.4,.2h-3.1l-.2,-.2l-.3,-.3V841l1.7,-6.5l.2,-.5l.3,-.3l.3,-.3l.5,-.2l.4,-.1h3.1m-2.2,8v.3l.2,.2l.2,.3l.1,.2h.8m3.1,-1.1l2.9,-11.2l.2,-.1l.1,-.2h1l.3,.2l.1,.3v.5l-2.5,3.2l.3,-.3l.5,-.2l.5,-.1h2l.3,.1l.3,.2l.2,.1v.8l-1.9,7.1l-.1,.2l-.4,.3l-.4,.2h-3l-.1,-.2l-.3,-.3V841m1.8,-6.8l.3,-.5m6.2,8.4l4.7,-9h2.1l-2.3,9m7.7,0h-2.1l-.6,-.2l-.5,-.2l-.3,-.4l-.3,-.5l-.2,-.4l.2,-.7l1.4,-5.2l.1,-.5l.3,-.3l.3,-.3l.5,-.2l.5,-.1H381l.4,.1l.5,.3l.2,.5v.5l-1,3.1h-4.3m8.8,-4.5l-2.3,9m1.2,-5h3.6m-1.2,5l2.3,-9m4.1,0l-2,7.6v.4l.2,.5l.5,.3l.4,.2h1.7l.6,-.2l.5,-.2l.3,-.4l.3,-.6m2,-7.6l-2.3,9m8.8,-4.1h-3.5l-.3,-.3l-.2,-.3l-.1,-.3v-.5l.6,-2.1l.1,-.5l.3,-.3l.3,-.3l.5,-.2l.5,-.1h1.7l.4,.1l.3,.2l.2,.3l.2,.3v.5l-2.1,7.6M401.5,838l-2.7,4.1m15.3,0l-3.9,-12.6m8.5,12.6l6.5,-12.6l-.3,12.6M420.7,838h4.4m3.7,7.6l2.7,-12.5h3l.3,.1h.3l.3,.2l.2,.3l.1,.3v.6l-1.7,6.1l-.3,.6l-.3,.4l-.5,.2l-.6,.2h-3.1m13.2,0h-3.1l-.6,-.2l-.7,-.3l-.3,-.5l-.3,-.6l.2,-.8l2,-7.5l.3,-.8l.6,-.8l.8,-.6l.8,-.3l.9,-.2h2.6m3.3,3.6l-2,7.6v.4l.1,.5l.5,.3l.4,.2h1.7l.7,-.2l.4,-.2l.3,-.4l.3,-.6m2.1,-7.6l-2.4,9m6.7,-12.6h2.9l.6,.2l.7,.3l.3,.5l.3,.7l-.2,.6l-2.1,8.1l-.3,.8l-.5,.6l-.5,.4l-.7,.2l-.8,.2h-3.1m3.5,-6.7h3.6m2,10.2l2.8,-12.5h2.9l.3,.1h.4l.3,.2l.1,.3l.2,.3v.6l-1.7,6.1l-.3,.6l-.3,.4l-.5,.2l-.6,.2h-3.1m15.3,0l-3.9,-12.6m9.1,10.2l2.2,-8.8l.2,-.4l.3,-.4l.3,-.3l.4,-.1l.5,-.2h2.8l.5,.2l.4,.3l.2,.5v.4l-2.6,9.8l-.4,.6l-.3,.4l-.6,.2l-.5,.2h-1.7l-.6,-.2l-.6,-.3l-.3,-.5l-.3,-.6l.1,-.8m9,2.4l3.4,-12.6h4.8m6.5,0l-3.4,12.6m6,-12.6h-5.2m13.7,12.6l-3.8,-12.6m14.1,0l-4.8,9.5h5.4m-1,-3.1l-1.7,6.2m6.1,0l.1,-1m12.7,1l3.4,-12.6H555l-3.3,12.6m3.7,3.5l2.8,-12.5h3l.3,.1h.3l.3,.2l.1,.3l.2,.3v.6l-1.7,6.1l-.3,.6l-.3,.4l-.5,.2l-.6,.2h-3.1m8.2,-1.6l1.5,-6l.4,-.6l.3,-.4l.6,-.3l.4,-.1h1.6l.3,.1h.3l.3,.2l.2,.3l.1,.3v.6l-1.7,6.1l-.3,.6l-.3,.4l-.5,.2l-.6,.2h-1.8l-.3,-.2l-.3,-.2l-.2,-.3l-.2,-.3v-.3l.2,-.3m9.4,-6.5l.5,-.3l.5,-.3l.4,-.2l.6,-.1l.7,.1l.6,.2l.4,.5l.4,.6v1.2l-.5,.6l-.5,.3l-3.7,1.9l-.4,.5l-.5,.4v1.4l.5,.6l.4,.5l.6,.2h.7l.6,-.2l.4,-.2l.5,-.3l.5,-.4m2.4,4.6l2.8,-12.5h3l.3,.1h.3l.3,.2l.1,.3l.2,.3v.6l-1.7,6.1l-.3,.6l-.3,.4l-.5,.2l-.6,.2h-3.1m14.5,-9l-2.1,8.5l-.2,.1l-.1,.2l-.5,.2h-3.1l-.1,-.2l-.4,-.3V841l1.7,-6.5l.2,-.5l.3,-.3l.3,-.3l.5,-.2l.4,-.1h3.1m-2.1,8v.3l.1,.2l.2,.3l.1,.2h.8m2.8,0l2.3,-9l1.7,4l3.7,-4l-2.3,9m3.3,0l2.3,-9l1.7,4l3.7,-4l-2.3,9m5.5,-9l-2.3,9h3.6l.4,-.4l.4,-.1l.3,-.5l.1,-.4l.5,-1.7v-.8l-.3,-.3l-.3,-.2l-.5,-.1h-2.9m4.9,4.5l2.5,-9m13.7,-3.6h2.5l.5,.2l.3,.4v.5l-2.8,10.8l-.1,.2l-.4,.3l-.4,.2h-3l-.1,-.2l-.3,-.3V841l1.7,-6.5l.1,-.5l.3,-.3l.4,-.3l.4,-.2l.5,-.1h2l.3,.1l.3,.2l.2,.1l.1,.5m2,8.1l4.7,-9h2.1l-2.3,9M653,838h-3.5l-.3,-.3l-.2,-.3l-.1,-.3v-.5l.6,-2.1l.1,-.5l.3,-.3l.4,-.3l.4,-.2l.5,-.1h1.7l.4,.1l.4,.2l.1,.3l.2,.3v.5l-2,7.6M650.3,838l-2.8,4.1m19.9,0h-2.3l-.3,-.2l-.3,-.2l-.2,-.3l-.1,-.3v-.3l.1,-.3l-.1,.3v.3l.1,.3l.2,.3l.3,.2l.3,.2h2.3m-3.1,-1.6l1.6,-6l-1.6,6m1.6,-6l.3,-.6l.3,-.4l.6,-.3l.5,-.1h1.8m1.3,9l2.3,-9m3.5,0l-2.3,9m-1.2,-9h5.9l.3,.1l.3,.2l.3,.3v.8l-2,7.6m3.2,0l.2,-1m16.2,1h-2.3l-.3,-.2l-.3,-.2l-.2,-.3l-.1,-.3v-.3l.1,-.3l-.1,.3v.3l.1,.3l.2,.3l.3,.2l.3,.2h2.3m-3.1,-1.6l1.6,-6l-1.6,6m1.6,-6l.3,-.6l.3,-.4l.6,-.3l.5,-.1h1.8m13.3,-3.6l-1.2,4.5v.6l.2,.6l.3,.7l.6,.3h3.7m-1.6,5.9L718,829.5m.9,12.6l3.4,-12.6h5.3l-3.3,12.6m7.6,-12.6l-1.2,4.5v.6l.1,.6l.3,.7l.7,.3h3.4m2,-6.7l-1.7,6.5l-1.3,4.7l-.1,.4l-.3,.5l-.5,.1l-.3,.4h-3.6m16.3,0l-3.9,-12.6m11.9,0l-1.2,4.5v.6l.1,.6l.4,.7l.6,.3H757m2,-6.7l-1.7,6.5l-1.3,4.7l-.1,.4l-.3,.5l-.5,.1l-.3,.4h-3.6m8.7,0l3.4,-12.6h5.3l-3.3,12.6m9.6,-.5h-5.2m15.4,-12.1l-3.4,12.6m6.1,-12.6h-5.3m5.7,16.1L791,833.1h2.9l.3,.1h.4l.3,.2l.1,.3l.2,.3v.6l-1.7,6.1l-.3,.6l-.3,.4l-.5,.2l-.6,.2h-3.1m8.2,-1.6l1.5,-6l.3,-.6l.3,-.4l.7,-.3l.4,-.1h1.6l.3,.1h.3l.3,.2l.2,.3l.1,.3v.6l-1.7,6.1l-.3,.6l-.3,.4l-.5,.2l-.6,.2h-1.9l-.3,-.2l-.3,-.2l-.1,-.3l-.2,-.3v-.3l.2,-.3m11,-7.4h4.4l.4,.1l.3,.2l.3,.3v.8l-1.7,6.2l-.2,.4l-.3,.5l-.3,.1l-.5,.4h-5.2l-.3,-.4l-.2,-.3l-.1,-.3v-.4l1.7,-6.2l.1,-.5l.3,-.3l.3,-.3l.5,-.2l.5,-.1m-1.1,12.5l4.3,-16.1m5.7,3.6l-2,7.6v.4l.2,.5l.4,.3l.5,.2h1.7l.6,-.2l.5,-.2l.3,-.4l.3,-.6m2,-7.6l-2.3,9m3.2,0l2.4,-9l1.7,4l3.7,-4l-2.3,9m3.7,-1.6l1.5,-6l.3,-.6l.3,-.4l.7,-.3l.4,-.1h1.6l.3,.1h.3l.3,.2l.1,.3l.2,.3v.6l-1.7,6.1l-.3,.6l-.3,.4l-.5,.2l-.6,.2h-1.9l-.3,-.2l-.3,-.2l-.1,-.3l-.2,-.3v-.3l.2,-.3m-682,-34.8l3.4,-12.6h5.3l-3.3,12.6m3.8,3.5l2.7,-12.5h3l.3,.2h.3l.3,.1l.2,.3l.1,.3v.7l-1.7,6l-.3,.6l-.3,.5l-.5,.1l-.6,.2H159m10.1,-9l-2,7.6v.4l.1,.5l.5,.3l.4,.2h1.8l.6,-.2l.4,-.1l.3,-.5l.4,-.6m2,-7.6l-2.4,9m5.6,-9l1.4,4.5m-3.7,4.5l4.5,-5.4m1.1,-3.6l-2.5,9m5.6,-9l-4.5,5m1.5,4l-.8,-5m7,-4l-2,7.6v.4l.1,.5l.5,.3l.5,.2h1.7l.6,-.2l.5,-.1l.3,-.5l.3,-.6m2,-7.6l-2.3,9m3.2,0l2.3,-9l1.7,4l3.7,-4l-2.3,9m5.6,-9l-2.3,9m1.2,-5h3.6m-1.3,5l2.4,-9m8.6,0l-2.2,8.5l-.1,.2l-.2,.1l-.4,.2H209l-.2,-.2l-.3,-.3v-.6l1.7,-6.5l.2,-.5l.3,-.3l.3,-.3l.5,-.1l.4,-.2H215m-2.2,8v.4l.2,.1l.2,.3l.1,.2h.8m8.3,-4h-3.5l-.3,-.4l-.2,-.3l-.1,-.3v-.4l.6,-2.2l.1,-.5l.3,-.3l.4,-.3l.4,-.1l.5,-.2h1.7l.4,.2l.4,.1l.1,.3l.2,.3v.5l-2,7.6m-1.7,-4l-2.8,4m16.4,0l2.3,-9h2.9l.3,.2h.3l.4,.1l.1,.3l.2,.3v.7l-2,7.4m3.2,0l4.6,-9h2.2l-2.3,9m10,-9l-2.1,8.5l-.2,.2l-.1,.1l-.5,.2h-3.1l-.1,-.2l-.4,-.3v-.6l1.7,-6.5l.2,-.5l.3,-.3l.3,-.3l.5,-.1l.4,-.2h3.1m-2.1,8v.4l.1,.1l.2,.3l.1,.2h.8m5.1,-9l-2.3,9m1.2,-5h3.6m-1.2,5l2.3,-9m4.1,0l-2.3,9m6.1,-9l-5,5m.8,-.7l2.6,4.7m10.1,-9l-2.2,8.5l-.2,.2l-.1,.1l-.5,.2h-3.1l-.1,-.2l-.3,-.3v-.6l1.7,-6.5l.1,-.5l.3,-.3l.3,-.3l.5,-.1l.5,-.2h3.1m-2.2,8v.4l.2,.1l.1,.3l.2,.2h.7m14.6,-11.6l.3,-1h6.2l-7.5,12.6m11.5,-11.6l.3,-1h6.2l-7.4,12.6m9.2,-3.3l1.9,-7.2l.3,-.8l.5,-.5l.6,-.4l.8,-.4h.6l.8,.4l.6,.3l.4,.6l.4,.6l.1,.8v.6l-2,7.4l-.3,.6l-.5,.7l-.6,.3l-.8,.3h-.6l-.8,-.2l-.6,-.4l-.4,-.5l-.4,-.8l-.1,-.6l.1,-.8m8.7,3.3l.2,-1m7.1,-10.6l.3,-1h6.2l-7.5,12.6m13.4,0H335l5.1,-5.4l.7,-.7l.7,-1l.3,-.8l.5,-.8v-.5l.2,-.4l.1,-.6l-.1,-.7l-.3,-.6l-.5,-.4l-.6,-.5l-.6,-.2h-.7l-.6,.4l-.6,.3l-.5,.6l-.1,.6m11.7,-1.9l-4.8,9.5h5.4m-.9,-3.1l-1.7,6.2m7,-3.3l1.8,-7.2l.3,-.8l.5,-.5l.6,-.4l.8,-.4h.6l.8,.4l.6,.3l.5,.6l.3,.6l.1,.8v.6l-2,7.4l-.3,.6l-.4,.7l-.7,.3l-.7,.3h-.7l-.7,-.2l-.6,-.4l-.5,-.5l-.3,-.8l-.2,-.6l.2,-.8m15.1,-1.2h-5.2m9.3,1.2l1.8,-7.2l.3,-.8l.5,-.5l.6,-.4l.8,-.4h.6l.8,.4l.6,.3l.5,.6l.3,.6l.1,.8v.6l-2,7.4l-.3,.6l-.5,.7l-.6,.3l-.8,.3H376l-.7,-.2l-.7,-.4l-.4,-.5l-.3,-.8l-.2,-.6l.2,-.8m11.2,3.3l3.5,-12.6l-3.8,3.6m7.3,9l3.4,-12.6l-3.7,3.6m7.3,9l3.4,-12.6l-3.7,3.6m4.6,9l.2,-1m4.9,-2.3l1.9,-7.2l.3,-.8l.4,-.5l.7,-.4l.7,-.4h.6l.8,.4l.6,.3l.5,.6l.3,.6l.2,.8v.6l-2,7.4l-.4,.6l-.4,.7l-.6,.3l-.8,.3h-.6l-.8,-.2l-.6,-.4l-.5,-.5l-.3,-.8l-.2,-.6l.2,-.8m13.6,3.3h-5.4l5.1,-5.4l.6,-.7l.8,-1l.3,-.8l.5,-.8v-.5l.1,-.4l.2,-.6l-.2,-.7l-.3,-.6l-.4,-.4l-.7,-.5l-.6,-.2h-.6l-.6,.4l-.6,.3l-.5,.6l-.2,.6M152.8,811.3l-3.4,12.6m1.7,-6.7h5.4m-1.7,6.7l3.3,-12.6m5.4,12.6h-2.2l-.6,-.2l-.4,-.1l-.3,-.5l-.4,-.5l-.1,-.4l.1,-.7l1.4,-5.2l.2,-.5l.3,-.3l.3,-.3l.5,-.2l.4,-.1h1.7l.5,.1l.5,.4l.1,.4v.5l-.9,3.1h-4.3m8.8,-4.5l-2,7.6v.4l.1,.3l.2,.4l.3,.3h2.9l.3,-.2l.2,-.1l.1,-.2l.2,-.3m2.2,-8.2l-3,11.3l-.1,.3l-.3,.5l-.5,.3l-.3,.1h-3.1m10.5,-12.5l-2.3,9m6,-9l-4.9,4.9m.7,-.6l2.7,4.7m10,-9l-2.1,8.5l-.2,.2l-.1,.1l-.5,.2H183l-.2,-.2l-.3,-.3v-.6l1.7,-6.5l.2,-.5l.3,-.3l.3,-.3l.5,-.2l.4,-.1H189m-2.1,8v.3l.1,.2l.2,.3l.1,.2h.8m5,-8.1l.1,-.4l.5,-.4l.4,-.1h.3l.5,.1l.5,.2l.4,.3l.2,.3l.3,.5v.9l-.3,.9l-.2,.4l-.1,.3l-.3,.3l-.3,.1l-.5,.2h-.3l.5,.1l.3,.2l.1,.1l.2,.4v.3l-.5,1.7l-.1,.4l-.2,.3l-.3,.3l-.5,.4l-.3,.1l-.4,.2h-.8l-.3,-.2l-.3,-.1l-.3,-.4l-.4,-.3m2.4,-3.5h1m10.1,-4.5l-2.2,8.5l-.1,.2l-.2,.1l-.4,.2h-3.1l-.2,-.2l-.3,-.3v-.6l1.7,-6.5l.2,-.5l.3,-.3l.3,-.3l.4,-.2l.5,-.1h3.1m-2.2,8v.3l.2,.2l.1,.3l.2,.2h.8m5.1,-9l-2.3,9m1.2,-5h3.5m-1.2,5l2.3,-9m4.2,0l-2.3,9m1.2,-5h3.6m-1.3,5l2.4,-9m4.1,0l-2.3,9h3.6l.4,-.3l.4,-.2l.3,-.5l.1,-.4l.5,-1.7V820l-.3,-.3l-.3,-.2l-.5,-.1h-2.9m4.9,4.5l2.5,-9m5.4,9h-2.2l-.6,-.2l-.5,-.1l-.3,-.5l-.3,-.5l-.1,-.4l.1,-.7l1.4,-5.2l.2,-.5l.3,-.3l.3,-.3l.5,-.2l.4,-.1h1.7l.5,.1l.5,.4l.1,.4v.5l-.9,3.1h-4.4m14.7,8l2.8,-12.5h3l.3,.1h.3l.3,.2l.1,.3l.2,.3v.6l-1.7,6.1l-.3,.6l-.3,.5l-.5,.1l-.6,.2h-3.1m14.5,-9l-2.1,8.5l-.2,.2l-.1,.1l-.5,.2h-3.1l-.1,-.2l-.4,-.3v-.6l1.7,-6.5l.2,-.5l.3,-.3l.3,-.3l.5,-.2l.4,-.1h3.1m-2.1,8v.3l.1,.2l.2,.3l.1,.2h.8m5,-8.1l.1,-.4l.5,-.4l.4,-.1h.4l.4,.1l.5,.2l.4,.3l.2,.3l.3,.5v.9l-.3,.9l-.2,.4l-.1,.3l-.3,.3l-.3,.1l-.5,.2h-.3l.5,.1l.3,.2l.1,.1l.2,.4v.3l-.5,1.7l-.1,.4l-.2,.3l-.3,.3l-.5,.4l-.3,.1l-.4,.2h-.8l-.3,-.2l-.3,-.1l-.3,-.4l-.3,-.3m2.3,-3.5h1.1m3.2,4.5l2.3,-9l1.7,4l3.7,-4l-2.3,9m7.8,0H282l-.6,-.2l-.5,-.1l-.3,-.5l-.3,-.5l-.2,-.4l.2,-.7l1.4,-5.2l.1,-.5l.3,-.3l.3,-.3l.5,-.2l.5,-.1h1.7l.4,.1l.5,.4l.2,.4v.5l-1,3.1h-4.3m6,8l2.8,-12.5h3l.3,.1h.3l.3,.2l.1,.3l.2,.3v.6l-1.7,6.1l-.3,.6l-.3,.5l-.5,.1l-.6,.2h-3.1m10.1,-9l-2.4,9h3.6l.5,-.3l.3,-.2l.3,-.5l.1,-.4l.5,-1.7V820l-.3,-.3l-.3,-.2l-.5,-.1h-2.9m4.9,4.5l2.5,-9m13.1,9h-2.3l-.3,-.2l-.3,-.1l-.2,-.4l-.1,-.3v-.3l.1,-.3l-.1,.3v.3l.1,.3l.2,.4l.3,.1l.3,.2h2.3m-3.1,-1.6l1.6,-6l-1.6,6m1.6,-6l.3,-.6l.3,-.3l.6,-.4l.5,-.1H319m1.2,9l2.3,-9l1.7,4l3.7,-4l-2.3,9m3.7,-1.6l1.6,-6l.3,-.6l.3,-.3l.6,-.4l.5,-.1h1.5l.3,.1h.3l.3,.2l.2,.3l.1,.3v.6l-1.7,6.1l-.3,.6l-.3,.5l-.4,.1l-.7,.2h-1.8l-.3,-.2l-.3,-.1l-.2,-.4l-.1,-.3v-.3l.1,-.3m7.3,1.6l2.3,-9m3.6,0l-2.4,9m-1.2,-9h5.9l.3,.1l.3,.2l.3,.3v.8l-2,7.6m5.6,-9l-2,7.6v.4l.1,.5l.5,.3l.4,.2H350l.7,-.2l.4,-.1l.3,-.5l.3,-.6m2.1,-7.6l-2.4,9m3.3,0l2.3,-9m3.6,0l-2.4,9m-1.2,-9h5.9l.3,.1l.3,.2l.3,.3v.8l-2,7.6m7.7,0h-2.1l-.7,-.2l-.4,-.1l-.3,-.5l-.3,-.5l-.2,-.4l.2,-.7l1.4,-5.2l.1,-.5l.3,-.3l.3,-.3l.5,-.2l.5,-.1h1.7l.4,.1l.5,.4l.1,.4v.5l-.9,3.1h-4.3m15.1,4.5l2.4,-9h2.9l.3,.1h.3l.3,.2l.2,.3l.1,.3v.6l-2,7.5m3.7,-1.6l1.6,-6l.3,-.6l.3,-.3l.6,-.4l.5,-.1h1.5l.3,.1h.3l.4,.2l.1,.3l.2,.3v.6l-1.7,6.1l-.3,.6l-.4,.5l-.4,.1l-.6,.2h-1.9l-.3,-.2l-.3,-.1l-.2,-.4l-.1,-.3v-.3l.1,-.3m16,1.6l2.3,-9l1.7,4l3.7,-4l-2.3,9m3.7,-1.6l1.5,-6l.3,-.6l.4,-.3l.6,-.4l.4,-.1h1.6l.3,.1h.3l.3,.2l.2,.3l.1,.3v.6l-1.7,6.1l-.3,.6l-.3,.5l-.5,.1l-.6,.2h-1.8l-.3,-.2l-.4,-.1l-.1,-.4l-.2,-.3v-.3l.2,-.3m11.4,-11h2.5l.5,.2l.3,.5v.4l-2.8,10.8l-.2,.2l-.3,.3l-.4,.2h-3l-.1,-.2l-.3,-.3v-.6l1.7,-6.5l.1,-.5l.3,-.3l.3,-.3l.5,-.2l.5,-.1h2l.3,.1l.3,.2l.2,.2l.1,.4m6.5,8.1h-2.2l-.6,-.2l-.4,-.1l-.4,-.5l-.3,-.5l-.1,-.4l.1,-.7l1.4,-5.2l.2,-.5l.3,-.3l.3,-.3l.5,-.2l.4,-.1H436l.5,.1l.5,.4l.1,.4v.5l-.9,3.1h-4.3m6.5,4.5l4.6,-9h2.2l-2.4,9m5.6,-9l-2,7.6v.4l.2,.5l.4,.3l.5,.2h1.7l.6,-.2l.5,-.1l.3,-.5l.3,-.6m2,-7.6l-2.3,9M469,819.4h-5.3m17,4.5l2.4,-9H486l.3,.1h.3l.3,.2l.2,.3l.1,.3v.6l-2,7.5m5.6,-9l-2,7.6v.4l.1,.3l.2,.4l.3,.3h2.9l.3,-.2l.2,-.1l.2,-.2l.1,-.3m2.2,-8.2l-3,11.3l-.1,.3l-.3,.5l-.5,.3l-.3,.1H488m8.2,-3.5l2.3,-9m3.6,0l-2.3,9m-1.3,-9h5.9l.3,.1l.3,.2l.3,.3v.8l-2,7.6m5.6,-9l-2.3,9h3.5l.5,-.3l.3,-.2l.3,-.5l.2,-.4l.4,-1.7V820l-.3,-.3l-.3,-.2l-.5,-.1h-2.9" class="g4_1" />
<path d="M23.8,898.6H1262.4m0,0V180.8m0,0H23.8m0,0V898.6m0,-36.8H1262.4m-1137.2,0v36.8M1194.8,861.8v36.8M23.8,180.8V33.6M1262.4,180.8V15.2M23.8,162.4H372.9M23.8,144H372.9M23.8,125.6H1262.4M23.8,88.8H1262.4M68.9,180.8V125.6m45,55.2V125.6m101.3,55.2V125.6m90.1,55.2V125.6m67.6,55.2V125.6m371.5,55.2V125.6m259,55.2V125.6m202.7,55.2V125.6m-213.9,0V88.8m202.6,36.8V88.8m-1092.2,0V33.6m90.1,55.2V33.6m90.1,55.2V33.6m67.6,55.2V33.6m844.4,55.2V15.2m-90,73.6V15.2M1003.4,88.8V15.2m-45,73.6V15.2M913.3,88.8V15.2M845.8,88.8V52M755.7,88.8V52M656.1,88.8V52M609.3,88.8V52m-45,36.8V52M23.8,70.4H350.4M23.8,52H350.4M23.8,33.6H350.4M564.3,70.4h698.1M564.3,52h698.1M913.3,33.6h349.1M913.3,15.2h349.1M32.9,85.5L35.8,74.8h4.5L37.5,85.5m4,-1.3L42.8,79l.3,-.5l.3,-.3l.5,-.2l.4,-.2h1.3l.3,.2h.2l.3,.1l.1,.3l.2,.2v.6l-1.5,5.1l-.3,.6l-.2,.4l-.4,.1l-.6,.1H42.2l-.3,-.1l-.3,-.1L41.5,85l-.1,-.3v-.2l.1,-.3m9.8,-9.4h2.1l.4,.1l.3,.4v.4L51.7,85l-.1,.1l-.3,.3l-.4,.1H48.4l-.1,-.1L48,85.1v-.5L49.4,79l.2,-.4l.2,-.2l.3,-.3l.4,-.1l.4,-.2h1.7l.3,.2l.3,.1l.1,.1l.1,.4m1.8,6.9l1.9,-7.7h2.6l.2,.2h.3l.3,.1l.1,.3l.1,.2v.6L59,85.5m2.8,0l.1,-.8M32.9,67.1L35.8,56.4h2.1l.7,.1l.5,.3l.4,.5l.3,.5v.7l-.2,.7l-.4,.6l-.2,.6l-.6,.5l-.5,.4l-.4,.1H34.3m-1.4,5.7h3.8l.6,-.2l.5,-.3l.4,-.5l.4,-.4l.2,-.8l.2,-.8l-.2,-1l-.2,-.7l-.4,-.7l-.7,-.3m6.2,-1.2l.2,-.4l.4,-.2l.4,-.2h.2l.4,.2l.4,.1l.4,.3l.2,.2l.2,.4v.8l-.2,.8l-.2,.3l-.1,.3l-.3,.2l-.2,.1l-.4,.2h-.3l.4,.1l.3,.1l.1,.2l.1,.2v.3l-.4,1.5l-.1,.4l-.1,.2l-.3,.3l-.4,.3l-.3,.1l-.4,.1h-.6L42.8,67l-.2,-.1l-.3,-.3L42,66.3m2,-3h.9m8.7,-3.9l-1.9,7.3l-.1,.2l-.2,.1l-.4,.1H48.4L48.3,67L48,66.7v-.5l1.4,-5.6l.2,-.4l.2,-.2l.3,-.3l.4,-.1l.4,-.2h2.7m-1.9,6.9v.3l.1,.1L52,67l.1,.1h.7m2.4,0l1.9,-7.7l1.5,3.5l3.2,-3.5l-2,7.7m2.8,0l.1,-.8M33.7,48.7L38.3,38.1l.3,-.1h1.6l.1,.2L37.5,48.7m.7,0H32.9l-.3,.8m5.6,-.8l-.2,.8M43.9,41l-1.7,6.5v.4l.1,.3l.1,.3l.3,.2h2.5l.3,-.1l.1,-.1l.1,-.2l.2,-.2M47.7,41l-2.5,9.7l-.1,.3l-.3,.4l-.4,.2l-.3,.2H41.5m7.3,-4l1.4,-5.6l.2,-.4l.2,-.2l.3,-.3l.4,-.1l.4,-.2h1.7l.3,.2l.3,.1l.1,.1v.7l-1.6,6.1l-.1,.1l-.3,.3l-.4,.1H49.2l-.1,-.1l-.3,-.3v-.5M54,41.3L51.7,38.5v-.3l.1,-.1L52,38h3.2m.7,10.7l4,-7.7h1.9l-2,7.7m2.8,0l.1,-.8M45.9,891l4.8,-17.9M47.6,884L58.2,873.1m-8.8,9.1l4.2,8.8M64.4,873.1L59.6,891M62,881.5h7.7M67.3,891l4.6,-17.9m17.7,-3L73.3,893.7M90.7,891l4.9,-17.9h7.5L98.5,891M931.5,14.1L934.4,3.3h4.1m1,8.8l1.8,-7.6l.1,-.4l.3,-.2l.3,-.3l.4,-.1l.4,-.2h2.4l.4,.2l.4,.2l.1,.4v.4l-2.3,8.4l-.2,.5l-.3,.4l-.5,.1l-.4,.2h-1.5l-.5,-.2l-.5,-.2l-.3,-.4l-.3,-.6l.2,-.6m12.3,2h-2.7l-.5,-.2l-.5,-.2l-.3,-.4l-.3,-.6l.2,-.6l1.7,-6.5l.3,-.7l.5,-.6l.7,-.6l.6,-.2l.8,-.2h2.3m5.9,0l-2.9,10.8M962.8,3.3h-4.5m15.6,0h3.7L973.5,8l.8,.4l.6,.5l.3,.7l.3,.8v.8l-.1,.8l-.3,.6l-.5,.7l-.7,.4l-.8,.2l-.8,.2H971m7.4,0l.2,-.8m5.7,.8L987.2,3.3L984,6.4m6.2,7.7L993.1,3.3L990,6.4m4.7,4.9l1.6,-6.2l.3,-.7L997,4l.5,-.4l.7,-.3h.5l.7,.3l.5,.3l.4,.5l.3,.5l.1,.7v.5L999,12.5l-.3,.5l-.4,.5l-.5,.3l-.7,.3h-.5l-.7,-.2l-.5,-.4l-.4,-.4l-.3,-.6l-.1,-.5l.1,-.7m14.1,-8h-3.7l-1.5,5.1h3.1l.4,.2l.1,.4v.4l-.9,3.5l-.2,.4l-.2,.4l-.3,.1l-.4,.3h-3m13,-3.9h-4.6m7.6,2.3l.7,-2.5l.2,-.6l.3,-.5l.5,-.3l.6,-.2h1.8l.5,-.2l.6,-.1l.4,-.4l.4,-.4l.1,-.5l.5,-1.9V4.4l-.1,-.4l-.3,-.3l-.4,-.2l-.4,-.2h-1.3l-.5,.2l-.5,.1l-.4,.4l-.4,.4l-.3,.5l-.4,1.9l-.1,.4l.1,.5l.3,.3l.4,.2l.5,.2m-2.8,4.1V13l.1,.4l.3,.4l.4,.1l.4,.2h1.3l.6,-.2l.5,-.1l.5,-.4l.3,-.4l.2,-.5l.7,-2.7V9.4l-.1,-.4l-.3,-.4l-.4,-.2h-.4m8.5,-5.1l-4.1,8.1h4.6m-.8,-2.6l-1.4,5.3m16.8,-8.8h2.5l1,.2l.8,.4l.5,.8l.2,.7l-.1,1l-.2,1.2l-.3,.6l-.4,.4l-.5,.4l-.6,.3l-.6,.1h-2.7l-.8,-.1l-.8,-.5l-.5,-.7l-.3,-.9l.2,-.8l.2,-1.4l.3,-.5l.4,-.5l.5,-.4l.5,-.3h.7m-.4,8.8l2.8,-10.8m5,9.4l1.4,-5.1l.2,-.6l.3,-.2l.5,-.3l.4,-.1h1.3l.3,.1h.3l.2,.2l.2,.2l.1,.3v.5l-1.5,5.2l-.2,.5l-.3,.4l-.4,.1l-.5,.2H1054l-.3,-.2l-.2,-.1l-.2,-.3l-.1,-.2V13l.1,-.3m5.9,4.4l2.4,-10.7h2.5l.2,.1h.3l.3,.2l.1,.2l.1,.3v.5l-1.4,5.2l-.3,.5l-.3,.4l-.4,.1l-.5,.2h-2.6m6.6,0l2,-7.7l1.4,3.4l3.2,-3.4l-2,7.7m8.7,-7.7l-1.9,7.3l-.1,.1l-.2,.1l-.4,.2h-2.6l-.2,-.2l-.2,-.2v-.6l1.4,-5.5l.2,-.4l.2,-.3l.3,-.2l.4,-.2l.4,-.1h2.7m-1.9,6.9v.2l.1,.2l.2,.2l.1,.2h.7m12.4,-10l.3,-.8h5.3l-6.4,10.8m13,-7.7l-1.8,7.3l-.2,.1l-.1,.1l-.4,.2h-2.7l-.1,-.2l-.3,-.2v-.6l1.5,-5.5l.1,-.4l.3,-.3l.3,-.2l.4,-.2l.4,-.1h2.6m-1.8,6.9v.2l.1,.2l.1,.2l.2,.2h.6m134,150.6H1229m.1,-64.7h6.2l-6.9,7.7l1.3,.7l.9,.9l.7,1.1l.4,1.3V113l-.2,1.3l-.4,1.1l-.9,1.1l-1.1,.7l-1.4,.5l-1.3,.2h-2.2m-428.1,26l.4,-1.4h8.8l-10.6,17.9m16.4,-16.5l.4,-1.4h8.9l-10.6,17.9M823,155.8l2.7,-10.4l.4,-1.1l.7,-.7l.9,-.6l1.1,-.5h.8l1.2,.5l.8,.4l.7,.9l.4,.9l.3,1.1v.9l-2.9,10.6l-.5,.9l-.6,.8l-.9,.5l-1.1,.4h-.9l-1.1,-.2l-.9,-.7l-.6,-.6l-.5,-1.1l-.2,-.9l.2,-1.1m12.4,4.6l.2,-1.3m10.2,-15.2l.4,-1.4h8.9l-10.6,17.9m19,0h-7.8l7.3,-7.7l.9,-.9l1.1,-1.5l.4,-1.1l.7,-1.1v-.7l.2,-.7l.2,-.9l-.2,-.8l-.4,-.9l-.7,-.7l-.9,-.6l-.8,-.3h-.9l-.9,.5l-.9,.4l-.7,.9l-.2,.9m16.8,-2.7L869.9,156h7.7m-1.3,-4.4l-2.5,8.8m10,-4.6l2.6,-10.4l.5,-1.1l.6,-.7l.9,-.6l1.1,-.5h.9l1.1,.5l.9,.4l.7,.9l.4,.9l.2,1.1v.9l-2.8,10.6l-.5,.9l-.7,.8l-.8,.5l-1.1,.4h-.9l-1.1,-.2l-.9,-.7l-.7,-.6l-.4,-1.1l-.2,-.9l.2,-1.1M905.4,154h-7.5m13.3,1.8l2.6,-10.4l.5,-1.1l.6,-.7l.9,-.6l1.1,-.5h.9l1.1,.5l.9,.4l.7,.9l.4,.9l.2,1.1v.9l-2.9,10.6l-.4,.9l-.7,.8l-.8,.5l-1.1,.4h-.9l-1.1,-.2l-.9,-.7l-.7,-.6l-.4,-1.1l-.2,-.9l.2,-1.1m16.1,4.6l4.9,-17.9l-5.3,5.1m10.4,12.8l4.8,-17.9l-5.3,5.1m10.4,12.8l4.9,-17.9l-5.3,5.1" class="g5_1" />

</svg>
