<?xml version="1.0" encoding="UTF-8" standalone="no"?>
<!DOCTYPE svg PUBLIC "-//W3C//DTD SVG 1.1//EN"
"http://www.w3.org/Graphics/SVG/1.1/DTD/svg11.dtd">


<!-- Page 1 -->
<svg x="0" y="0" width="1286" height="909" viewBox="0 0 1286 909" version="1.1" xmlns="http://www.w3.org/2000/svg" xmlns:xlink="http://www.w3.org/1999/xlink"
style="display: block;margin-left: auto;margin-right: auto;">
<defs>

<style type="text/css"><![CDATA[

.g0_1{
fill: none;
stroke: #000000;
stroke-width: 1.5157083;
stroke-linecap: butt;
stroke-linejoin: miter;
}
.g1_1{
fill: none;
stroke: #000000;
stroke-width: 0.7794722;
stroke-linecap: butt;
stroke-linejoin: miter;
}
.g2_1{
fill: none;
stroke: #000000;
stroke-width: 0.56298614;
stroke-linecap: butt;
stroke-linejoin: miter;
}

]]></style>

</defs>
<path d="M0,0
L0,909
L1286,909
L1286,0 Z " 
fill="#FFFFFF" stroke="none" />
<image preserveAspectRatio="none" x="12" y="51" width="755" height="768" xlink:href="1/img/1.png" />
<path d="M42.2,78.2l56.5,4.1M40.8,79.4l-.9,-.5v-.4l.8,-.3h1.5M103,83.9L89,96M98.7,82.3l1.8,.3L102,83l.9,.5l.1,.4M83.3,95.6L40.8,79.4M89,96l-.8,.3H86.6l-1.7,-.2l-1.6,-.5" class="g0_1" />
<path d="M603.7,344.4l-.1,.5l-.1,.5m22.1,-57.9l-.5,1.8l-.5,1.8l-.5,1.5l-.5,1.5l-.4,1.3l-.5,1.2l-.2,.8l-.3,.7l-.2,.7l-.2,.6l-.3,.8l-.3,.7l-.1,.2l-.1,.2l-.1,.3l-.1,.3l-.1,.4l-.2,.3l-.2,.5l-.1,.4l-.3,.8l-.3,.7l-.2,.4l-.3,.4m65.7,33l.2,-.2M647.8,409.2l10.5,-34.6m0,0v-.7l-.1,-.2l-.1,-.2l-.1,-.2l-.2,-.2l-.2,-.3m.7,1.8l.3,-.9l.3,-1l.7,-1.9l.7,-1.9l.7,-1.5l.7,-1.5l.9,-1.6l.9,-1.6l1,-1.7l1.1,-1.6l1.2,-1.6l1.3,-1.7l1.3,-1.5l1.3,-1.6l1.4,-1.5l1.5,-1.5l1.6,-1.5l1.6,-1.5l1.9,-1.8l1.9,-1.8l1.9,-1.9M641.7,563.6l.8,.1l.8,.1h1.4l1.4,-.1l1.4,-.1l1.4,-.3l1.4,-.3l1.3,-.4l1.4,-.5l1.3,-.6l1.4,-.6l1.3,-.8l1.4,-.8l1.3,-.9l1.3,-1l1.4,-1.1l1.3,-1.2l1.3,-1.3l1.3,-1.4l1.3,-1.5l1.2,-1.6l1.3,-1.6l1.2,-1.8l1.2,-1.8l1.1,-1.8l1.1,-1.9l1.1,-2l1.1,-2l1,-2.1l1,-2.1l.9,-2.2l.9,-2.2l.9,-2.2l.8,-2.3l.8,-2.3l.8,-2.3l.5,-1.4l.4,-1.4m0,0l.4,-1.3l.3,-1.2l.7,-2.5l.7,-2.4l.6,-2.5l.5,-2.5l.6,-2.5l.5,-2.5l.4,-2.5l.5,-2.6l.3,-2.5l.4,-2.5l.3,-2.6l.3,-2.5l.2,-2.5l.2,-2.6l.2,-2.5l.1,-2.5v-2.5l.1,-2.4v-2.5l-.1,-2.4L692,461l-.1,-2.3l-.2,-2.4l-.2,-2.3l-.3,-2.3l-.3,-2.2l-.3,-2.2l-.4,-2.2l-.5,-2.1l-.5,-2.1l-.5,-2.1l-.6,-2l-.7,-1.9l-.8,-1.9l-.8,-1.9l-.8,-1.8l-.9,-1.8l-1,-1.6l-1,-1.4l-.9,-1.4l-1,-1.2l-1.1,-1.2l-1,-1l-1.1,-1l-1.1,-.9l-1.2,-.9l-1.2,-.7l-1.2,-.7l-1.4,-.6l-1.4,-.6l-1.3,-.5l-1.5,-.4h-.1M598.3,555.2l-3.3,1.4l-2.9,2.2l-2.3,2.8l-1.5,3.2m0,0l-10.8,35.8m0,0l-.7,2.5m0,0l-.3,1.2m0,0l-.1,1l-.2,1l-.1,1l-.1,1.1l-.2,2l-.1,2l.1,2l.1,2l.3,2l.3,1.9l.5,1.9l.6,1.8l.7,1.9l.8,1.7l1.8,3.4l2.1,3.2m0,0l2.4,3.7l2,3.9l.8,2.1l.6,2.1l.6,2.2l.3,2.2l.3,2.3v4.6l-.2,2.3l-.4,2.3l-.4,2.3l-.6,2.3l-.6,2.3m0,0l-30.7,101m0,0h-.6l-.2,.1l-.4,.1l-.3,.1l-.4,.3l-.2,.3l-.2,.4l-.2,.3l-.1,.8l.2,.7l.5,.5l.7,.3m0,0l-5.4,17.8m0,0L537,790.6m0,0l-44.6,-7.4m0,0l-12.8,-3.4m0,0L485,761.9m0,0h.8l.4,-.2l.4,-.1l.3,-.3l.3,-.3l.2,-.3l.1,-.4l.1,-.4v-.4l-.1,-.3l-.1,-.4l-.2,-.3l-.3,-.2l-.3,-.2l-.4,-.1m0,0L516.9,657m0,0l22.7,-61.4m0,0l.3,-.9l.3,-1m0,0l.2,-.6m0,0l11.8,-38.8m0,0l.6,-3.5l-.5,-3.4l-1.5,-2.9l-2.4,-2.3l-3,-1.5m0,0l-7.1,-2.1m57.4,20.1l12.4,1.3m-12.5,-1.3h.1m12.4,1.3l-3.2,-.8l-3,-1.6L599.2,555l-2.6,-3.4l-2.2,-4.2l-2,-4.9l-1.6,-5.6l-1.3,-6.3l-.9,-6.8l-.6,-7.3l-.2,-7.7l.2,-8l.5,-8.1l1,-8.3l1.3,-8.4l1.6,-8.2l1.9,-8.1l2.3,-7.7l2.5,-7.5l2.8,-7l3,-6.4l3.2,-5.9l3.3,-5.2l3.4,-4.4l3.4,-3.7l3.5,-2.8l3.5,-2l3.4,-1.1m5.7,-.9L634,405h-1.1l-.7,.1l-.7,.1l-.7,.2l-.7,.2l-.7,.2l-.8,.2m9.9,1.1l-2.1,-1.2l-2.1,-.8M592.8,558l1.3,.5l1.4,.2M576.9,401.6l-28.4,-1M525.7,537.5l25.7,7.9M548.4,400.7h-1.7l-1.4,.1l-1.4,.2l-1.3,.2l-1.4,.4l-1.3,.4l-1.3,.6l-1.3,.6l-1.3,.6l-1.3,.8l-1.3,.9l-1.3,.9l-1.2,1l-1.3,1.2l-1.2,1.2l-1.3,1.3l-1.2,1.4l-1.3,1.6l-1.2,1.6l-1.1,1.6l-1.2,1.8l-1.1,1.8l-1,1.8l-1.1,1.9l-1,2l-.9,2l-1,2l-.8,2.1l-.9,2.2l-.8,2.1l-.8,2.2l-.8,2.2l-.7,2.3l-.7,2.3l-.6,2.3l-.7,2.3l-.5,2.4l-.6,2.4l-.5,2.4l-.5,2.4l-.4,2.4l-.4,2.4l-.4,2.4l-.3,2.4l-.3,2.5l-.3,2.4l-.2,2.4l-.1,2.4l-.2,2.4l-.1,2.4v7l.1,2.3l.1,2.3l.2,2.2l.2,2.2l.2,2.2l.3,2.2l.4,2.1l.4,2.1l.4,2l.5,2l.6,2l.6,1.9l.7,1.9l.7,1.9l.8,1.8l.9,1.7l.8,1.5l.9,1.4l1,1.3l.9,1.2l1,1.1l1,1.1l1.1,1l1.1,.9l1.1,.8l1.1,.8l1.2,.7l1.2,.6l1.3,.6l1.4,.4h.1m63.5,-145l-.3,.7l-.2,.8l-.5,.9l-.5,.9l-.6,.8l-.7,.8l-.6,.7l-.7,.6l-.7,.5l-.8,.5l-.7,.4l-.8,.4l-.7,.3l-.8,.2l-.6,.2l-.7,.2l-.5,.1h-.6l-.4,.1h-.9m48.9,-55.2l.5,.1l.6,.1l.6,.2l.6,.1l.4,.1l.3,.1h.3l.3,.1l.6,.2l.6,.1l.6,.2l.6,.2l.3,.1l.3,.1l.2,.1h.1l.2,.1h.1l.6,.3l.6,.2l.5,.2l.6,.2l.5,.3l.6,.2l.1,.1h.1l.2,.1l.1,.1l.2,.1l.3,.1l.5,.3l.4,.2l.4,.3l.5,.2l.2,.2l.1,.1l.1,.1h.1l.1,.1l.1,.1l.4,.2l.3,.3l.3,.2l.2,.3l.3,.2l.2,.3M698.4,304.6l-.3,1.1l-.4,1.2l-.4,1.1l-.4,1l-.9,2.2l-1,2.2l-2.4,4.2l-2.9,4.1l-3.4,3.7l-3.7,3.4l-4,2.9l-4.1,2.5l-1.1,.6l-1,.5l-1.1,.6l-1,.7l-2,1.3l-2,1.5l-3.8,3.2l-3.5,3.6l-3.1,4l-2.6,4.1l-2.1,4.4l-1.6,4.3m-8,-9.7l8,9.7m48.8,-58.4l-2.5,-2.5l-3.5,-2.7l-4.3,-2.7L683,294.1l-5.6,-2.5l-6,-2.3M618.9,345.3L612,344.1m13.8,2.3l-6.9,-1.1m-15.6,.8l-14.1,46.4M651.5,284.2l-.5,.9l-.5,1l-.5,.9l-.5,1l-1,1.9l-1,1.9l-2.1,3.8l-2,3.9l-2.1,3.8l-2.1,3.8l-2,3.8l-2.1,3.8l-.5,1l-.5,.9l-.5,1l-.6,.9l-1,1.9l-1,1.9l-2,3.8l-2.1,3.9l-2,3.8l-2,3.8l-2,3.8l-2,3.9m52.5,-56l-6.7,-2.1L658,285.5l-6.5,-1.3m6.1,88.6l-8,-9.8m1.9,-78.8l-.3,-.1h-.3m-17,32.8l1.1,-2.1l1,-2l1.1,-2.1l1,-2l2.2,-4.1l2.1,-4.1l2.1,-4.1l2.1,-4l1.1,-2.1l1,-2l.6,-1l.5,-1.1l.5,-1l.5,-1m.1,-.1l-.1,.1m-.5,-.2l-.5,.9l-.5,1l-.5,.9l-.4,1l-1,1.9l-1,1.9l-1.9,3.9l-2,3.8l-1.9,3.9l-2,3.8l-2,3.8l-1.9,3.8l-.5,1l-.5,.9l-.5,1l-.5,1l-1,1.9l-.9,1.9l-2,3.8l-2,3.8l-2,3.9l-2,3.8l-1.9,3.8l-2,3.9m32,-61.2l-.3,-.1h-.3m0,0l-6.1,-.8l-5.4,-.3l-4.7,.2m30,-122.4L625.7,287.4M700.2,310L738.7,183.4M700.2,310l-.1,-2.5l-1.7,-2.9M634.1,283.1l-3.3,.6l-2.6,1l-1.7,1.2l-.9,1.6M736.9,177.9l-2.2,-2.2l-3,-2.4L728,170.9l-4.3,-2.4l-4.8,-2.2l-5.2,-2.2l-5.4,-2l-5.7,-1.7L697,158.9l-5.6,-1.2l-5.3,-.8l-5,-.5l-4.5,-.2l-3.9,.3l-3.3,.5l-2.6,.9l-1.7,1.3l-1,1.5m74.6,22.7l-.1,-2.6l-1.7,-2.9M618.5,307l-1,1.8l-1,1.7l-1.4,2.8l-1.5,2.8l-1.2,2.4l-1,2.5l-1,2.4l-1,2.4l-.8,2.3l-.7,2.2l-1.2,3.7l-1.2,3.8l-.9,3.2l-.9,3.3m-.3,1.1l-.1,.4l-.1,.3m.3,-.6l.1,-.3l.1,-.1V345h.1v-.1l.1,-.1l.1,-.1l.2,-.1l.3,-.2l.2,-.1l.3,-.1l.3,-.1h.3l.1,-.1h.3l.4,-.1h.4l.5,-.1h1.9l.5,.1h.6l.5,.1h.6l.6,.1m-8.3,.3l-.1,.5l-.1,.5m22.1,-57.9l-.5,1.8l-.5,1.8l-.5,1.5l-.5,1.5l-.4,1.3l-.5,1.2l-.2,.8l-.3,.7l-.2,.7l-.2,.6l-.3,.8l-.3,.7l-.1,.2l-.1,.2l-.1,.3l-.1,.3l-.1,.4l-.2,.3l-.2,.5l-.1,.4l-.3,.8l-.3,.7l-.2,.4l-.3,.4m65.7,33l.2,-.2M647.8,409.2l10.5,-34.6m0,0v-.7l-.1,-.2l-.1,-.2l-.1,-.2l-.2,-.2l-.2,-.3m.7,1.8l.3,-.9l.3,-1l.7,-1.9l.7,-1.9l.7,-1.5l.7,-1.5l.9,-1.6l.9,-1.6l1,-1.7l1.1,-1.6l1.2,-1.6l1.3,-1.7l1.3,-1.5l1.3,-1.6l1.4,-1.5l1.5,-1.5l1.6,-1.5l1.6,-1.5l1.9,-1.8l1.9,-1.8l1.9,-1.9m2.5,-2.9l.6,-.9l.7,-.9l.7,-.9l.6,-.8l.4,-.6l.5,-.7l.4,-.6l.4,-.6l.7,-.9l.6,-1l.9,-1.3l.8,-1.3l1,-1.6l.9,-1.7l1.1,-2l1,-2.1l1.1,-2.4l1,-2.5l1,-2.9l.8,-2.8M595.7,558.7l46,5m25,-150.3L638.1,407M595.6,558.7h.1m-2.9,-.7l1.3,.5l1.4,.2M576.9,401.6l-28.4,-1M525.7,537.5l25.7,7.9M548.4,400.7h-1.7l-1.4,.1l-1.4,.2l-1.3,.2l-1.4,.4l-1.3,.4l-1.3,.6l-1.3,.6l-1.3,.6l-1.3,.8l-1.3,.9l-1.3,.9l-1.2,1l-1.3,1.2l-1.2,1.2l-1.3,1.3l-1.2,1.4l-1.3,1.6l-1.2,1.6l-1.1,1.6l-1.2,1.8l-1.1,1.8l-1,1.8l-1.1,1.9l-1,2l-.9,2l-1,2l-.8,2.1l-.9,2.2l-.8,2.1l-.8,2.2l-.8,2.2l-.7,2.3l-.7,2.3l-.6,2.3l-.7,2.3l-.5,2.4l-.6,2.4l-.5,2.4l-.5,2.4l-.4,2.4l-.4,2.4l-.4,2.4l-.3,2.4l-.3,2.5l-.3,2.4l-.2,2.4l-.1,2.4l-.2,2.4l-.1,2.4v7l.1,2.3l.1,2.3l.2,2.2l.2,2.2l.2,2.2l.3,2.2l.4,2.1l.4,2.1l.4,2l.5,2l.6,2l.6,1.9l.7,1.9l.7,1.9l.8,1.8l.9,1.7l.8,1.5l.9,1.4l1,1.3l.9,1.2l1,1.1l1,1.1l1.1,1l1.1,.9l1.1,.8l1.1,.8l1.2,.7l1.2,.6l1.3,.6l1.4,.4h.1m63.5,-145l-.3,.7l-.2,.8l-.5,.9l-.5,.9l-.6,.8l-.7,.8l-.6,.7l-.7,.6l-.7,.5l-.8,.5l-.7,.4l-.8,.4l-.7,.3l-.8,.2l-.6,.2l-.7,.2l-.5,.1h-.6l-.4,.1h-.9m48.9,-55.2l.5,.1l.6,.1l.6,.2l.6,.1l.4,.1l.3,.1h.3l.3,.1l.6,.2l.6,.1l.6,.2l.6,.2l.3,.1l.3,.1l.2,.1h.1l.2,.1h.1l.6,.3l.6,.2l.5,.2l.6,.2l.5,.3l.6,.2l.1,.1h.1l.2,.1l.1,.1l.2,.1l.3,.1l.5,.3l.4,.2l.4,.3l.5,.2l.2,.2l.1,.1l.1,.1h.1l.1,.1l.1,.1l.4,.2l.3,.3l.3,.2l.2,.3l.3,.2l.2,.3M698.4,304.6l-.3,1.1l-.4,1.2l-.4,1.1l-.4,1l-.9,2.2l-1,2.2l-2.4,4.2l-2.9,4.1l-3.4,3.7l-3.7,3.4l-4,2.9l-4.1,2.5l-1.1,.6l-1,.5l-1.1,.6l-1,.7l-2,1.3l-2,1.5l-3.8,3.2l-3.5,3.6l-3.1,4l-2.6,4.1l-2.1,4.4l-1.6,4.3m-8,-9.7l8,9.7m48.8,-58.4l-2.5,-2.5l-3.5,-2.7l-4.3,-2.7L683,294.1l-5.6,-2.5l-6,-2.3M618.9,345.3L612,344.1m13.8,2.3l-6.9,-1.1m-15.6,.8l-14.1,46.4M651.5,284.2l-.5,.9l-.5,1l-.5,.9l-.5,1l-1,1.9l-1,1.9l-2.1,3.8l-2,3.9l-2.1,3.8l-2.1,3.8l-2,3.8l-2.1,3.8l-.5,1l-.5,.9l-.5,1l-.6,.9l-1,1.9l-1,1.9l-2,3.8l-2.1,3.9l-2,3.8l-2,3.8l-2,3.8l-2,3.9m52.5,-56l-6.7,-2.1L658,285.5l-6.5,-1.3m6.1,88.6l-8,-9.8m1.9,-78.8l-.3,-.1h-.3m-17,32.8l1.1,-2.1l1,-2l1.1,-2.1l1,-2l2.2,-4.1l2.1,-4.1l2.1,-4.1l2.1,-4l1.1,-2.1l1,-2l.6,-1l.5,-1.1l.5,-1l.5,-1m.1,-.1l-.1,.1m-.5,-.2l-.5,.9l-.5,1l-.5,.9l-.4,1l-1,1.9l-1,1.9l-1.9,3.9l-2,3.8l-1.9,3.9l-2,3.8l-2,3.8l-1.9,3.8l-.5,1l-.5,.9l-.5,1l-.5,1l-1,1.9l-.9,1.9l-2,3.8l-2,3.8l-2,3.9l-2,3.8l-1.9,3.8l-2,3.9m32,-61.2l-.3,-.1h-.3m0,0l-6.1,-.8l-5.4,-.3l-4.7,.2m30,-122.4L625.7,287.4M700.2,310L738.7,183.4M700.2,310l-.1,-2.5l-1.7,-2.9M634.1,283.1l-3.3,.6l-2.6,1l-1.7,1.2l-.9,1.6M736.9,177.9l-2.2,-2.2l-3,-2.4L728,170.9l-4.3,-2.4l-4.8,-2.2l-5.2,-2.2l-5.4,-2l-5.7,-1.7L697,158.9l-5.6,-1.2l-5.3,-.8l-5,-.5l-4.5,-.2l-3.9,.3l-3.3,.5l-2.6,.9l-1.7,1.3l-1,1.5m74.6,22.7l-.1,-2.6l-1.7,-2.9M618.5,307l-1,1.8l-1,1.7l-1.4,2.8l-1.5,2.8l-1.2,2.4l-1,2.5l-1,2.4l-1,2.4l-.8,2.3l-.7,2.2l-1.2,3.7l-1.2,3.8l-.9,3.2l-.9,3.3m-.3,1.1l-.1,.4l-.1,.3m.4,-.9l.1,-.1V345h.1v-.1l.1,-.1l.1,-.1l.2,-.1l.3,-.2l.2,-.1l.3,-.1l.3,-.1h.3l.1,-.1h.3l.4,-.1h.4l.5,-.1h1.9l.5,.1h.6l.5,.1h.6l.6,.1" class="g1_1" />
<path d="M519.7,466.2l6.4,1.1l6.4,1l46.4,7.7m6.4,1.1l21.4,3.6m6.4,1l46.4,7.7l6.4,1.1l6.4,1.1M519.7,466.2l6.4,1.1l6.4,1l23.3,3.9m6.4,1.1l21.3,3.5m6.5,1.1l23.2,3.8l6.4,1.1l6.4,1.1M657.3,317.3l1.9,-6.2l1.9,-6.2l16,-52.8m1.9,-6.3l6.3,-20.7m1.9,-6.2l16,-52.8l1.9,-6.2l1.9,-6.2M657.3,317.3l1.9,-6.2l1.9,-6.2l16,-52.8m1.9,-6.3l6.3,-20.7m1.9,-6.2l16,-52.8l1.9,-6.2l1.9,-6.2" class="g2_1" />

</svg>
